<svg width="54" height="48" viewBox="0 0 54 48" fill="none" xmlns="http://www.w3.org/2000/svg">
<g clip-path="url(#clip0_2_425)">
<path d="M31.9609 10.393V47.8389" stroke="#27A797" stroke-width="0.5" stroke-miterlimit="10"/>
<path d="M31.961 18.9969L28.1406 11.3561" stroke="#27A797" stroke-width="0.5" stroke-miterlimit="10"/>
<path d="M31.9609 22.8173L35.7817 15.1764" stroke="#27A797" stroke-width="0.5" stroke-miterlimit="10"/>
<path d="M31.961 31.0264L28.1406 23.3856" stroke="#27A797" stroke-width="0.5" stroke-miterlimit="10"/>
<path d="M31.9609 34.8469L35.7817 27.2061" stroke="#27A797" stroke-width="0.5" stroke-miterlimit="10"/>
<path d="M31.961 43.056L28.1406 35.4152" stroke="#27A797" stroke-width="0.5" stroke-miterlimit="10"/>
<path d="M31.9609 46.8764L35.7817 39.2357" stroke="#27A797" stroke-width="0.5" stroke-miterlimit="10"/>
<path d="M26.3592 13.1611C27.7419 15.1765 30.0398 15.1765 30.0398 15.1765C30.0398 15.1765 30.2578 12.5727 28.7792 9.78197C27.449 7.27143 25.4037 4.63978 24.9361 4.95925C24.4696 5.27736 23.9568 9.66221 26.3592 13.1611Z" fill="#27A797"/>
<path d="M26.3592 24.7008C27.7419 26.7162 30.0398 26.7162 30.0398 26.7162C30.0398 26.7162 30.2578 24.1125 28.7792 21.3211C27.449 18.8105 25.4037 16.1795 24.9361 16.4983C24.4696 16.8171 23.9568 21.2019 26.3592 24.7008Z" fill="#27A797"/>
<path d="M25.4514 35.4352C26.8341 37.4499 29.132 37.4499 29.132 37.4499C29.132 37.4499 29.3503 34.8462 27.8714 32.0548C26.5412 29.5449 24.4962 26.9132 24.029 27.2321C23.5621 27.5515 23.0497 31.9356 25.4514 35.4352Z" fill="#27A797"/>
<path d="M37.5638 16.3731C36.1807 18.3879 33.8828 18.3879 33.8828 18.3879C33.8828 18.3879 33.6648 15.7841 35.1434 12.9934C36.4736 10.4828 38.5185 7.85185 38.9858 8.17001C39.4527 8.48949 39.9658 12.8736 37.5638 16.3731Z" fill="#27A797"/>
<path d="M37.5638 27.9123C36.1807 29.9276 33.8828 29.9276 33.8828 29.9276C33.8828 29.9276 33.6648 27.3232 35.1434 24.5331C36.4736 22.0226 38.5185 19.3909 38.9858 19.7104C39.4527 20.0285 39.9658 24.4133 37.5638 27.9123Z" fill="#27A797"/>
<path d="M38.4713 38.6466C37.0886 40.6613 34.7903 40.6613 34.7903 40.6613C34.7903 40.6613 34.5721 38.0575 36.051 35.2668C37.3814 32.7562 39.426 30.1246 39.8936 30.4441C40.3605 30.7622 40.873 35.147 38.4713 38.6466Z" fill="#27A797"/>
<path d="M29.931 7.67342C30.0082 10.1161 31.9427 11.3561 31.9427 11.3561C31.9427 11.3561 33.5318 9.28146 33.792 6.13399C34.0262 3.30192 33.7234 -0.0165995 33.1584 6.24903e-05C32.5926 0.0159775 29.7959 3.43172 29.931 7.67342Z" fill="#27A797"/>
<path d="M45.2792 9.37929L41.3813 48" stroke="#27A797" stroke-width="0.5" stroke-miterlimit="10"/>
<path d="M47.3335 27.1812C47.1218 27.648 45.8303 29.5812 45.4014 29.388C44.9723 29.1937 45.568 26.9465 45.7794 26.4797C45.9905 26.0128 46.8008 25.6651 47.0866 25.7891C47.3721 25.913 47.5443 26.7142 47.3335 27.1812Z" fill="#E86B7D"/>
<path d="M48.1229 27.7807C47.7295 28.1093 46.2143 29.8724 46.5164 30.2337C46.818 30.5956 48.8225 29.418 49.2158 29.0899C49.609 28.7607 49.7257 27.8872 49.5303 27.6449C49.3342 27.4027 48.5165 27.4521 48.1229 27.7807Z" fill="#E86B7D"/>
<path d="M48.6077 27.6741C48.2772 28.1099 46.4721 29.8125 46.0719 29.5088C45.6717 29.205 46.8278 27.0085 47.1584 26.5733C47.4892 26.1375 48.2698 26.1615 48.4822 26.3351C48.6947 26.5087 48.9389 27.2389 48.6077 27.6741Z" fill="#EF8488"/>
<path d="M48.1363 29.758C47.3967 30.7318 45.5621 30.8741 45.2989 30.674C45.0358 30.4745 44.7817 28.5352 45.42 27.6953L45.4306 28.1846L45.9943 28.1308L46.204 28.7721L46.7995 28.7424L46.9143 29.3119L47.5099 29.2821L47.5304 29.7787L48.1363 29.758Z" fill="#27A797"/>
<path d="M46.5983 29.2765C46.5983 29.2765 43.0422 31.5443 42.5486 36.4347" stroke="#27A797" stroke-width="0.5" stroke-miterlimit="10"/>
<path d="M39.8286 25.2311C39.9424 25.7314 40.8216 27.8831 41.2802 27.7795C41.7403 27.6749 41.605 25.3545 41.4915 24.8543C41.378 24.3546 40.6531 23.8526 40.3481 23.9163C40.0439 23.9808 39.7151 24.7315 39.8286 25.2311Z" fill="#E86B7D"/>
<path d="M38.9356 25.661C39.2548 26.0621 40.3872 28.0917 40.0191 28.386C39.6508 28.6797 37.9223 27.1254 37.6027 26.7254C37.2826 26.3247 37.3432 25.4449 37.5833 25.2473C37.8238 25.0484 38.6152 25.2609 38.9356 25.661Z" fill="#E86B7D"/>
<path d="M38.4807 25.46C38.7183 25.9526 40.1464 27.9821 40.5993 27.7638C41.0521 27.5461 40.3582 25.1636 40.1212 24.671C39.884 24.1773 39.1143 24.0449 38.8714 24.1725C38.6286 24.3002 38.2439 24.9669 38.4807 25.46Z" fill="#EF8488"/>
<path d="M38.5271 27.5956C39.0571 28.6976 40.8263 29.2035 41.1238 29.06C41.4218 28.9172 42.058 27.0684 41.6003 26.1178L41.4922 26.5945L40.9509 26.4298L40.6171 27.0157L40.0401 26.8676L39.8129 27.4026L39.2362 27.2544L39.1162 27.7374L38.5271 27.5956Z" fill="#27A797"/>
<path d="M40.1302 27.4312C40.1302 27.4312 43.1612 30.3638 42.6676 35.2548" stroke="#27A797" stroke-width="0.5" stroke-miterlimit="10"/>
<path d="M45.1109 42.7317C43.7509 44.3387 41.7807 44.1398 41.7807 44.1398C41.7807 44.1398 41.8188 41.8888 43.3281 39.6243C44.6859 37.5872 46.6664 35.5085 47.0394 35.8223C47.4124 36.136 47.4726 39.9394 45.1109 42.7317Z" fill="#27A797"/>
<path d="M38.9333 40.5727C39.9447 42.4195 41.9144 42.6184 41.9144 42.6184C41.9144 42.6184 42.3271 40.4057 41.3007 37.8847C40.3778 35.618 38.8518 33.1849 38.424 33.4178C37.9958 33.6506 37.1768 37.3653 38.9333 40.5727Z" fill="#27A797"/>
<path d="M47.0929 23.0938C45.7329 24.7013 43.7626 24.5025 43.7626 24.5025C43.7626 24.5025 43.8008 22.2515 45.3101 19.9864C46.6679 17.9499 48.6484 15.8712 49.0213 16.1849C49.3943 16.4987 49.4546 20.302 47.0929 23.0938Z" fill="#27A797"/>
<path d="M40.9153 20.936C41.9267 22.7829 43.8963 22.9817 43.8963 22.9817C43.8963 22.9817 44.3091 20.7679 43.2827 18.2475C42.3599 15.9801 40.8337 13.5482 40.406 13.7805C39.9778 14.0134 39.1588 17.7281 40.9153 20.936Z" fill="#27A797"/>
<path d="M47.9087 15.011C46.5487 16.6184 44.5785 16.4196 44.5785 16.4196C44.5785 16.4196 44.6166 14.1686 46.1259 11.904C47.4838 9.86635 49.4642 7.78771 49.8372 8.10149C50.2101 8.41578 50.2704 12.2186 47.9087 15.011Z" fill="#27A797"/>
<path d="M41.7311 12.8525C42.7425 14.6993 44.7121 14.8981 44.7121 14.8981C44.7121 14.8981 45.1248 12.6854 44.0984 10.1644C43.1756 7.89711 41.6496 5.46461 41.2217 5.69755C40.7936 5.9304 39.9746 9.64507 41.7311 12.8525Z" fill="#27A797"/>
<path d="M44.0645 7.67332C43.8895 9.40789 45.1888 10.2745 45.1888 10.2745C45.1888 10.2745 46.6351 9.68502 46.8102 7.95041C47.0516 5.55851 46.5207 1.65808 46.0631 1.61188C45.6058 1.56572 44.3059 5.28142 44.0645 7.67332Z" fill="#27A797"/>
<path d="M9.13522 13.1861L13.915 47.877" stroke="#27A797" stroke-width="0.5" stroke-miterlimit="10"/>
<path d="M17.7264 39.7305C16.5337 42.7115 13.5402 44.3171 13.5402 44.3171C13.5402 44.3171 12.481 41.0896 13.6744 38.1091C14.8671 35.1281 17.8609 33.5224 17.8609 33.5224C17.8609 33.5224 18.9198 36.7499 17.7264 39.7305Z" fill="#27A797"/>
<path d="M7.8337 39.551C9.78875 42.0983 13.1047 42.8346 13.1047 42.8346C13.1047 42.8346 13.2513 39.441 11.2965 36.8936C9.34181 34.3468 6.02553 33.61 6.02553 33.61C6.02553 33.61 5.87903 37.0042 7.8337 39.551Z" fill="#27A797"/>
<path d="M16.2149 28.7598C15.0221 31.7408 12.0286 33.3464 12.0286 33.3464C12.0286 33.3464 10.9694 30.119 12.1628 27.1385C13.3555 24.1574 16.3493 22.5517 16.3493 22.5517C16.3493 22.5517 17.4084 25.7799 16.2149 28.7598Z" fill="#27A797"/>
<path d="M6.32214 28.5803C8.27718 31.1276 11.5931 31.8639 11.5931 31.8639C11.5931 31.8639 11.7397 28.4703 9.78492 25.9229C7.83025 23.3762 4.51406 22.6399 4.51406 22.6399C4.51406 22.6399 4.36746 26.0335 6.32214 28.5803Z" fill="#27A797"/>
<path d="M14.7034 17.7897C13.5106 20.7702 10.5171 22.3758 10.5171 22.3758C10.5171 22.3758 9.45787 19.1484 10.6512 16.1672C11.844 13.1867 14.8379 11.5811 14.8379 11.5811C14.8379 11.5811 15.8968 14.8092 14.7034 17.7897Z" fill="#27A797"/>
<path d="M4.81057 17.6097C6.76562 20.157 10.0815 20.8933 10.0815 20.8933C10.0815 20.8933 10.2281 17.4997 8.27336 14.9523C6.31869 12.4055 3.0025 11.6693 3.0025 11.6693C3.0025 11.6693 2.85581 15.0623 4.81057 17.6097Z" fill="#27A797"/>
<path d="M6.31294 8.69302C6.75114 11.8735 9.26849 14.1536 9.26849 14.1536C9.26849 14.1536 11.0754 11.2777 10.6372 8.09721C10.1989 4.91618 7.68146 2.63541 7.68146 2.63541C7.68146 2.63541 5.87464 5.51199 6.31294 8.69302Z" fill="#27A797"/>
<path d="M20.202 10.3745V47.96" stroke="#27A797" stroke-width="0.5" stroke-miterlimit="10"/>
<path d="M20.202 19.0105L16.3677 11.3412" stroke="#27A797" stroke-width="0.5" stroke-miterlimit="10"/>
<path d="M20.202 22.8451L24.0373 15.1759" stroke="#27A797" stroke-width="0.5" stroke-miterlimit="10"/>
<path d="M20.202 31.0849L16.3677 23.4156" stroke="#27A797" stroke-width="0.5" stroke-miterlimit="10"/>
<path d="M20.202 34.9195L24.0373 27.2503" stroke="#27A797" stroke-width="0.5" stroke-miterlimit="10"/>
<path d="M20.202 43.1594L16.3677 35.4901" stroke="#27A797" stroke-width="0.5" stroke-miterlimit="10"/>
<path d="M20.202 46.994L24.0373 39.3247" stroke="#27A797" stroke-width="0.5" stroke-miterlimit="10"/>
<path d="M18.8366 9.47627C19.7222 9.47095 19.838 10.3824 20.1871 10.3824C20.5372 10.3824 20.5148 9.57984 21.5383 9.47627C22.353 9.39343 23.0193 10.2352 23.0193 11.1705C23.0193 13.484 20.202 10.9184 20.202 10.9184C20.202 10.9184 17.3552 13.331 17.3552 11.1705C17.3552 10.2352 18.0182 9.48164 18.8366 9.47627Z" fill="#E98D94"/>
<path d="M14.8704 11.2957C15.5171 10.8381 16.1166 11.5163 16.3732 11.3379C16.6294 11.1588 16.1547 10.5128 16.8522 9.91293C17.408 9.43458 18.3272 9.71116 18.8062 10.3972C19.9904 12.0941 16.8377 12.4075 16.8377 12.4075C16.8377 12.4075 15.7573 14.8819 14.651 13.2973C14.172 12.6112 14.2725 11.7186 14.8704 11.2957Z" fill="#E98D94"/>
<path d="M17.674 16.4288C17.6292 15.8516 18.2773 15.7307 18.2608 15.5022C18.2452 15.2744 17.664 15.3305 17.5491 14.6685C17.4575 14.1414 17.9736 13.6684 18.5815 13.625C20.085 13.5188 18.4571 15.4892 18.4571 15.4892C18.4571 15.4892 20.2477 17.2158 18.8437 17.316C18.2358 17.3594 17.7154 16.962 17.674 16.4288Z" fill="#E98D94"/>
<path d="M14.7914 23.3869C15.4387 22.9286 16.0374 23.6067 16.2945 23.4283C16.5507 23.25 16.076 22.6039 16.7732 22.004C17.3286 21.5257 18.2486 21.8023 18.7272 22.4884C19.9114 24.1852 16.6653 24.1485 16.6653 24.1485C16.6653 24.1485 15.6785 26.9723 14.5726 25.3884C14.0936 24.7016 14.1942 23.8097 14.7914 23.3869Z" fill="#E98D94"/>
<path d="M17.4674 28.1163C17.4224 27.5391 18.0707 27.4175 18.0546 27.1891C18.0386 26.9619 17.4574 27.0174 17.3428 26.3553C17.2509 25.8282 17.7677 25.3552 18.3749 25.3125C19.8784 25.2056 18.285 27.0646 18.285 27.0646C18.285 27.0646 20.0408 28.9032 18.6371 29.0028C18.0292 29.0462 17.5089 28.6487 17.4674 28.1163Z" fill="#E98D94"/>
<path d="M15.1971 36.1404C15.8438 35.6828 16.4434 36.3608 16.6999 36.1818C16.9561 36.0027 16.4815 35.3574 17.1789 34.7575C17.7347 34.2792 18.6539 34.5551 19.1329 35.2419C20.3171 36.938 16.8377 36.3886 16.8377 36.3886C16.8377 36.3886 16.084 39.7258 14.9777 38.1419C14.4987 37.4551 14.5992 36.5626 15.1971 36.1404Z" fill="#E98D94"/>
<path d="M17.5228 40.3324C17.478 39.7559 18.126 39.6342 18.1096 39.4064C18.0939 39.1786 17.5127 39.2341 17.3978 38.572C17.3063 38.0456 17.8224 37.5719 18.4303 37.5292C19.9337 37.4223 18.4571 39.3046 18.4571 39.3046C18.4571 39.3046 20.0964 41.12 18.6925 41.2195C18.0846 41.263 17.5642 40.8655 17.5228 40.3324Z" fill="#E98D94"/>
<path d="M25.7614 15.031C25.1138 14.5734 24.5152 15.2514 24.2583 15.0724C24.0021 14.8941 24.4765 14.248 23.7793 13.6481C23.2238 13.1705 22.3039 13.4457 21.8253 14.1331C20.6411 15.8293 23.9805 15.5133 23.9805 15.5133C23.9805 15.5133 24.8743 18.6177 25.9802 17.0325C26.4596 16.3464 26.3587 15.4538 25.7614 15.031Z" fill="#E98D94"/>
<path d="M23.0851 19.506C23.1303 18.9288 22.4819 18.8072 22.4982 18.5794C22.5143 18.3523 23.0955 18.4077 23.2101 17.7457C23.3019 17.2186 22.7852 16.7456 22.1776 16.7028C20.6748 16.596 22.3618 18.5944 22.3618 18.5944C22.3618 18.5944 20.5118 20.2937 21.9154 20.3925C22.5233 20.436 23.044 20.0391 23.0851 19.506Z" fill="#E98D94"/>
<path d="M25.52 27.2675C24.873 26.8098 24.2733 27.4886 24.0168 27.3095C23.7602 27.1305 24.2349 26.4852 23.5378 25.8853C22.9819 25.4069 22.0624 25.6829 21.5834 26.3696C20.3996 28.0664 23.739 27.9831 23.739 27.9831C23.739 27.9831 24.6327 30.8536 25.739 29.269C26.2177 28.5829 26.1175 27.6903 25.52 27.2675Z" fill="#E98D94"/>
<path d="M23.0954 31.8103C23.1401 31.2337 22.4921 31.1121 22.5081 30.8843C22.5235 30.6565 23.105 30.712 23.2196 30.0499C23.3112 29.5229 22.7954 29.0492 22.1871 29.0071C20.6844 28.9002 22.1374 30.8993 22.1374 30.8993C22.1374 30.8993 20.5213 32.5979 21.9252 32.6974C22.5335 32.7409 23.0539 32.3434 23.0954 31.8103Z" fill="#E98D94"/>
<path d="M25.52 39.2959C24.873 38.8383 24.2733 39.5164 24.0168 39.3373C23.7602 39.1583 24.2349 38.513 23.5378 37.9124C22.9819 37.4354 22.0624 37.7106 21.5834 38.3974C20.3996 40.0942 23.739 40.0576 23.739 40.0576C23.739 40.0576 24.6327 42.882 25.739 41.2967C26.2177 40.6113 26.1175 39.7181 25.52 39.2959Z" fill="#E98D94"/>
<path d="M22.9087 43.932C22.9534 43.3548 22.3054 43.2332 22.3214 43.0054C22.3368 42.7776 22.9183 42.833 23.0329 42.171C23.1245 41.6439 22.6087 41.1709 22.0004 41.1281C20.4977 41.0213 22.1373 42.9736 22.1373 42.9736C22.1373 42.9736 20.3346 44.7189 21.7385 44.8184C22.3468 44.8619 22.8672 44.4644 22.9087 43.932Z" fill="#E98D94"/>
</g>
<defs>
<clipPath id="clip0_2_425">
<rect width="54" height="48" fill="white"/>
</clipPath>
</defs>
</svg>
