<svg width="19" height="19" viewBox="0 0 19 19" fill="none" xmlns="http://www.w3.org/2000/svg">
<path d="M16.0725 9.88148C16.3678 9.49125 16.5312 9.01312 16.5312 8.51566C16.5312 7.72641 16.09 6.97934 15.3799 6.56273C15.1971 6.4555 14.9889 6.39906 14.777 6.39926H10.5617L10.6672 4.23891C10.6918 3.71684 10.5072 3.22113 10.1486 2.8432C9.97265 2.65692 9.76034 2.50871 9.52481 2.40773C9.28929 2.30675 9.03556 2.25514 8.7793 2.25609C7.86523 2.25609 7.05664 2.87133 6.81406 3.75199L5.3041 9.21879H3.03125C2.72012 9.21879 2.46875 9.47016 2.46875 9.78129V16.1797C2.46875 16.4909 2.72012 16.7422 3.03125 16.7422H13.601C13.7627 16.7422 13.9209 16.7106 14.0668 16.6473C14.9035 16.2905 15.4432 15.4731 15.4432 14.5661C15.4432 14.3446 15.4115 14.1266 15.3482 13.9157C15.6436 13.5254 15.807 13.0473 15.807 12.5498C15.807 12.3284 15.7754 12.1104 15.7121 11.8995C16.0074 11.5092 16.1709 11.0311 16.1709 10.5336C16.1674 10.3121 16.1357 10.0924 16.0725 9.88148V9.88148ZM3.73438 15.4766V10.4844H5.1582V15.4766H3.73438ZM14.9211 9.27152L14.5361 9.60551L14.7805 10.052C14.861 10.1991 14.9027 10.3642 14.9018 10.5319C14.9018 10.8219 14.7752 11.0979 14.5572 11.2877L14.1723 11.6217L14.4166 12.0682C14.4971 12.2153 14.5388 12.3804 14.5379 12.5481C14.5379 12.8381 14.4113 13.1141 14.1934 13.3039L13.8084 13.6379L14.0527 14.0844C14.1332 14.2315 14.175 14.3966 14.174 14.5643C14.174 14.958 13.942 15.3131 13.5834 15.4748H6.2832V10.4282L8.03223 4.09125C8.07733 3.92883 8.17414 3.78553 8.308 3.68308C8.44186 3.58062 8.60546 3.52459 8.77402 3.52348C8.90762 3.52348 9.03945 3.56215 9.14492 3.64125C9.31895 3.77133 9.41211 3.9682 9.40156 4.17738L9.23281 7.66488H14.7594C15.0723 7.85648 15.2656 8.17992 15.2656 8.51566C15.2656 8.8057 15.1391 9.07992 14.9211 9.27152Z" fill="#747474"/>
</svg>
