<svg width="18" height="19" viewBox="0 0 18 19" fill="none" xmlns="http://www.w3.org/2000/svg">
<path d="M4.12508 11.7501C4.7814 11.7463 5.41266 11.4976 5.89508 11.0526L10.5901 13.7376C10.5303 13.9448 10.5 14.1594 10.5001 14.3751C10.4953 14.9837 10.7003 15.5754 11.0807 16.0506C11.4611 16.5258 11.9936 16.8554 12.5886 16.9839C13.1835 17.1123 13.8046 17.0319 14.3472 16.7561C14.8898 16.4803 15.3208 16.0259 15.5676 15.4695C15.8144 14.9131 15.8619 14.2887 15.7022 13.7013C15.5425 13.114 15.1853 12.5996 14.6907 12.2448C14.1961 11.89 13.5944 11.7165 12.9869 11.7534C12.3793 11.7903 11.803 12.0355 11.3551 12.4476L6.66008 9.76256C6.71674 9.57774 6.74704 9.38585 6.75008 9.19256L11.3626 6.55256C11.8081 6.95519 12.3786 7.19237 12.9782 7.22434C13.5779 7.2563 14.1703 7.08109 14.6561 6.7281C15.1419 6.37511 15.4916 5.8658 15.6465 5.2856C15.8014 4.7054 15.752 4.08959 15.5067 3.54144C15.2615 2.9933 14.8352 2.54617 14.2993 2.27503C13.7635 2.0039 13.1508 1.92525 12.5638 2.05228C11.9769 2.17931 11.4515 2.50429 11.0758 2.97273C10.7 3.44116 10.4967 4.02455 10.5001 4.62506C10.5026 4.84054 10.5329 5.0548 10.5901 5.26256L6.32258 7.70006C6.07531 7.31753 5.73276 7.00592 5.32859 6.79586C4.92442 6.58581 4.47255 6.48454 4.0174 6.502C3.56224 6.51946 3.11946 6.65506 2.73258 6.89547C2.34569 7.13588 2.02803 7.47282 1.8108 7.87318C1.59357 8.27353 1.48425 8.72352 1.49359 9.17892C1.50294 9.63431 1.63062 10.0794 1.86409 10.4706C2.09756 10.8617 2.42878 11.1853 2.8252 11.4096C3.22162 11.634 3.66959 11.7513 4.12508 11.7501V11.7501ZM13.1251 13.2501C13.3476 13.2501 13.5651 13.316 13.7501 13.4397C13.9351 13.5633 14.0793 13.739 14.1644 13.9445C14.2496 14.1501 14.2719 14.3763 14.2285 14.5945C14.1851 14.8128 14.0779 15.0132 13.9206 15.1706C13.7632 15.3279 13.5628 15.435 13.3446 15.4784C13.1263 15.5219 12.9001 15.4996 12.6946 15.4144C12.489 15.3293 12.3133 15.1851 12.1897 15.0001C12.0661 14.8151 12.0001 14.5976 12.0001 14.3751C12.0001 14.0767 12.1186 13.7905 12.3296 13.5796C12.5406 13.3686 12.8267 13.2501 13.1251 13.2501ZM13.1251 3.50006C13.3476 3.50006 13.5651 3.56604 13.7501 3.68966C13.9351 3.81327 14.0793 3.98897 14.1644 4.19454C14.2496 4.40011 14.2719 4.62631 14.2285 4.84454C14.1851 5.06277 14.0779 5.26322 13.9206 5.42056C13.7632 5.57789 13.5628 5.68504 13.3446 5.72844C13.1263 5.77185 12.9001 5.74957 12.6946 5.66443C12.489 5.57928 12.3133 5.43508 12.1897 5.25008C12.0661 5.06507 12.0001 4.84756 12.0001 4.62506C12.0001 4.32669 12.1186 4.04054 12.3296 3.82957C12.5406 3.61859 12.8267 3.50006 13.1251 3.50006ZM4.12508 8.00006C4.34758 8.00006 4.56509 8.06604 4.75009 8.18966C4.9351 8.31327 5.07929 8.48897 5.16444 8.69454C5.24959 8.90011 5.27187 9.12631 5.22846 9.34454C5.18505 9.56277 5.07791 9.76322 4.92057 9.92056C4.76324 10.0779 4.56278 10.185 4.34455 10.2284C4.12632 10.2719 3.90012 10.2496 3.69456 10.1644C3.48899 10.0793 3.31329 9.93508 3.18967 9.75008C3.06606 9.56507 3.00008 9.34756 3.00008 9.12506C3.00008 8.82669 3.1186 8.54054 3.32958 8.32956C3.54056 8.11859 3.82671 8.00006 4.12508 8.00006V8.00006Z" fill="#747474"/>
</svg>
