<svg width="17" height="16" viewBox="0 0 17 16" fill="none" xmlns="http://www.w3.org/2000/svg">
<path d="M14.8535 9.6465L13.5 8.293V6.5C13.4984 5.26092 13.0375 4.06642 12.2063 3.14749C11.3751 2.22856 10.2327 1.65047 9 1.525V0.5H8V1.525C6.76729 1.65047 5.62488 2.22856 4.79368 3.14749C3.96249 4.06642 3.50155 5.26092 3.5 6.5V8.293L2.1465 9.6465C2.05273 9.74025 2.00003 9.8674 2 10V11.5C2 11.6326 2.05268 11.7598 2.14645 11.8536C2.24021 11.9473 2.36739 12 2.5 12H6V12.3885C5.98912 13.0228 6.2127 13.6388 6.62789 14.1185C7.04308 14.5982 7.62068 14.9078 8.25 14.988C8.59759 15.0225 8.94854 14.9838 9.28029 14.8745C9.61204 14.7652 9.91724 14.5877 10.1763 14.3533C10.4353 14.119 10.6424 13.833 10.7843 13.5138C10.9261 13.1946 10.9996 12.8493 11 12.5V12H14.5C14.6326 12 14.7598 11.9473 14.8536 11.8536C14.9473 11.7598 15 11.6326 15 11.5V10C15 9.8674 14.9473 9.74025 14.8535 9.6465ZM10 12.5C10 12.8978 9.84196 13.2794 9.56066 13.5607C9.27936 13.842 8.89782 14 8.5 14C8.10218 14 7.72064 13.842 7.43934 13.5607C7.15804 13.2794 7 12.8978 7 12.5V12H10V12.5ZM14 11H3V10.207L4.3535 8.8535C4.44727 8.75975 4.49997 8.6326 4.5 8.5V6.5C4.5 5.43913 4.92143 4.42172 5.67157 3.67157C6.42172 2.92143 7.43913 2.5 8.5 2.5C9.56087 2.5 10.5783 2.92143 11.3284 3.67157C12.0786 4.42172 12.5 5.43913 12.5 6.5V8.5C12.5 8.6326 12.5527 8.75975 12.6465 8.8535L14 10.207V11Z" fill="#065A98"/>
</svg>
