<svg width="25" height="24" viewBox="0 0 25 24" fill="none" xmlns="http://www.w3.org/2000/svg">
<g clip-path="url(#clip0_2_608)">
<path d="M24.5 6.00001V4.55881C24.5002 4.43285 24.4755 4.3081 24.4273 4.1917C24.3792 4.07531 24.3086 3.96954 24.2195 3.88048C24.1305 3.79142 24.0247 3.7208 23.9083 3.67267C23.7919 3.62454 23.6672 3.59985 23.5412 3.60001H1.4612C1.33513 3.59985 1.21027 3.62452 1.09373 3.67262C0.9772 3.72072 0.871282 3.7913 0.782027 3.88034C0.692771 3.96937 0.621925 4.07511 0.573535 4.19152C0.525145 4.30793 0.500158 4.43274 0.500001 4.55881V6.00001H2.9V8.40001H0.500001V10.8H2.9V13.2H0.500001V15.6H2.9V18H0.500001V19.4388C0.499843 19.5651 0.524597 19.6901 0.572846 19.8068C0.621095 19.9235 0.69189 20.0295 0.781177 20.1188C0.870465 20.2081 0.976489 20.2789 1.09318 20.3272C1.20987 20.3754 1.33493 20.4002 1.4612 20.4H23.5412C23.6673 20.3999 23.7921 20.3749 23.9085 20.3265C24.0249 20.2781 24.1306 20.2072 24.2197 20.118C24.3087 20.0287 24.3793 19.9228 24.4274 19.8063C24.4755 19.6897 24.5002 19.5649 24.5 19.4388V18H22.1V15.6H24.5V13.2H22.1V10.8H24.5V8.40001H22.1V6.00001H24.5V6.00001ZM10.1 15.6V8.40001L16.1 12L10.1 15.6Z" fill="#1937FF"/>
</g>
<defs>
<clipPath id="clip0_2_608">
<rect width="24" height="24" fill="white" transform="translate(0.5)"/>
</clipPath>
</defs>
</svg>
