<svg width="18" height="19" viewBox="0 0 18 19" fill="none" xmlns="http://www.w3.org/2000/svg">
<g clip-path="url(#clip0_2_641)">
<path d="M5.06254 7.8125C4.44028 7.8125 3.93754 8.31523 3.93754 8.9375C3.93754 9.55977 4.44028 10.0625 5.06254 10.0625C5.68481 10.0625 6.18754 9.55977 6.18754 8.9375C6.18754 8.31523 5.68481 7.8125 5.06254 7.8125ZM9.00004 7.8125C8.37778 7.8125 7.87504 8.31523 7.87504 8.9375C7.87504 9.55977 8.37778 10.0625 9.00004 10.0625C9.62231 10.0625 10.125 9.55977 10.125 8.9375C10.125 8.31523 9.62231 7.8125 9.00004 7.8125ZM12.9375 7.8125C12.3153 7.8125 11.8125 8.31523 11.8125 8.9375C11.8125 9.55977 12.3153 10.0625 12.9375 10.0625C13.5598 10.0625 14.0625 9.55977 14.0625 8.9375C14.0625 8.31523 13.5598 7.8125 12.9375 7.8125ZM9.00004 1.625C4.02895 1.625 4.0624e-05 4.89805 4.0624e-05 8.9375C4.0624e-05 10.6109 0.69965 12.1437 1.85981 13.3777C1.33598 14.7629 0.246134 15.9371 0.228556 15.9512C-0.003475 16.1973 -0.0667562 16.5559 0.0668375 16.8652C0.200431 17.1746 0.506291 17.375 0.843791 17.375C3.0059 17.375 4.71098 16.4715 5.73403 15.7473C6.75004 16.0672 7.84692 16.25 9.00004 16.25C13.9711 16.25 18 12.977 18 8.9375C18 4.89805 13.9711 1.625 9.00004 1.625ZM9.00004 14.5625C8.06137 14.5625 7.13324 14.4184 6.24379 14.1371L5.44574 13.884L4.7602 14.3691C4.25746 14.7242 3.5684 15.1215 2.73871 15.3887C2.99535 14.9633 3.24496 14.4852 3.43832 13.9754L3.81098 12.9875L3.08676 12.2211C2.45043 11.5426 1.68754 10.4211 1.68754 8.9375C1.68754 5.83672 4.96762 3.3125 9.00004 3.3125C13.0325 3.3125 16.3125 5.83672 16.3125 8.9375C16.3125 12.0383 13.0325 14.5625 9.00004 14.5625Z" fill="#747474"/>
</g>
<defs>
<clipPath id="clip0_2_641">
<rect width="18" height="18" fill="white" transform="translate(0 0.5)"/>
</clipPath>
</defs>
</svg>
