<svg width="54" height="48" viewBox="0 0 54 48" fill="none" xmlns="http://www.w3.org/2000/svg">
<g clip-path="url(#clip0_601_2844)">
<path d="M39.6723 8.00105L38.6493 8.14369L37.9605 7.40147C37.8402 7.27193 37.5854 7.34478 37.552 7.51852L37.3611 8.51306L36.4181 8.9342C36.2397 9.01401 36.2282 9.25957 36.4005 9.34961L37.3061 9.82171L37.4119 10.8242C37.4321 11.0141 37.6666 11.097 37.8093 10.9636L38.5595 10.2607L39.5677 10.4594C39.7578 10.4964 39.9154 10.3036 39.8313 10.1307L39.3895 9.22438L39.9072 8.34403C40.0052 8.17643 39.8659 7.97425 39.6723 8.00105Z" fill="#3124A1"/>
<path d="M26.7666 39.796L25.8216 39.6284L25.4259 38.7745C25.3567 38.6254 25.1107 38.6168 25.0312 38.7606L24.5771 39.5849L23.6226 39.6862C23.4419 39.7055 23.3615 39.9192 23.4879 40.0483L24.1525 40.7254L23.9581 41.6419C23.9214 41.8155 24.1051 41.9561 24.2695 41.8792L25.1341 41.4735L25.9684 41.9387C26.1259 42.0261 26.3203 41.9007 26.2956 41.7239L26.1657 40.7958L26.8759 40.1667C27.0108 40.0467 26.9454 39.8278 26.7666 39.796Z" fill="#3124A1"/>
<path d="M9.57513 29.7898L9.01667 30.2572L8.32766 30.0707C8.20733 30.0382 8.0825 30.1769 8.12732 30.2934L8.38496 30.9589L7.97834 31.563C7.9014 31.6773 7.98632 31.8282 8.12302 31.8177L8.84028 31.7617L9.2782 32.3215C9.36108 32.4275 9.53256 32.3893 9.56797 32.2563L9.75398 31.5562L10.4307 31.2982C10.5582 31.2492 10.5805 31.0751 10.4655 31.0033L9.86305 30.6263L9.84361 29.907C9.83952 29.7701 9.68072 29.7014 9.57513 29.7898Z" fill="#3124A1"/>
<path d="M13.4635 12.0709L12.734 12.6817L11.8334 12.438C11.6758 12.3954 11.5123 12.5769 11.571 12.729L11.9079 13.5991L11.3764 14.389C11.2759 14.5384 11.3868 14.7354 11.5653 14.7217L12.5033 14.6485L13.0755 15.3801C13.184 15.5186 13.408 15.4687 13.4543 15.2949L13.6972 14.3798L14.5823 14.0425C14.7488 13.9787 14.7775 13.7509 14.6273 13.657L13.8398 13.1642L13.8147 12.2241C13.8093 12.0451 13.6016 11.9552 13.4635 12.0709Z" fill="#3124A1"/>
<path d="M46.2746 27.3648L45.4952 28.0172L44.533 27.7569C44.365 27.7117 44.1904 27.9055 44.253 28.068L44.6128 28.9974L44.0449 29.8409C43.9377 30.0006 44.0564 30.2111 44.2471 30.1966L45.2488 30.1182L45.8601 30.8999C45.9759 31.0479 46.2153 30.9947 46.2646 30.8089L46.5241 29.8313L47.4697 29.471C47.6476 29.4028 47.6783 29.1597 47.518 29.0592L46.6766 28.5329L46.6495 27.5285C46.644 27.3372 46.4222 27.2412 46.2746 27.3648Z" fill="#3124A1"/>
<path d="M21.3474 1.90182L20.9034 1.62372L20.8778 1.11069C20.8733 1.02106 20.7505 0.966424 20.6809 1.02311L20.2825 1.34746L19.7787 1.20339C19.6833 1.17618 19.599 1.26785 19.6364 1.35912L19.8343 1.83756L19.5485 2.26178C19.4944 2.342 19.5587 2.45086 19.6577 2.44554L20.1781 2.4171L20.5053 2.8231C20.5671 2.89943 20.6911 2.87569 20.7149 2.78115L20.8389 2.2849L21.327 2.11178C21.4199 2.07863 21.4315 1.95462 21.3474 1.90182Z" fill="#3124A1"/>
<path d="M48.9616 36.7769L48.5175 36.499L48.4919 35.986C48.4874 35.8961 48.3646 35.8415 48.2951 35.898L47.8966 36.2225L47.3928 36.0785C47.2975 36.0512 47.2131 36.1429 47.2508 36.2342L47.4485 36.7128L47.1628 37.1368C47.1086 37.2171 47.173 37.3261 47.2719 37.3206L47.7923 37.2922L48.1195 37.6982C48.1813 37.7745 48.3053 37.751 48.329 37.6562L48.453 37.16L48.9411 36.9868C49.034 36.9537 49.0457 36.8297 48.9616 36.7769Z" fill="#3124A1"/>
<path d="M47.0533 1.85699L46.8267 1.71518L46.8134 1.45304C46.8112 1.4074 46.7486 1.37957 46.713 1.40843L46.5098 1.57398L46.2525 1.50051C46.2038 1.4866 46.1609 1.53326 46.1799 1.57991L46.281 1.82425L46.1351 2.04076C46.1074 2.08168 46.1402 2.13734 46.1907 2.13448L46.4563 2.11995L46.6233 2.32725C46.655 2.36613 46.7183 2.35405 46.7304 2.30576L46.7936 2.05262L47.0428 1.96402C47.0903 1.94724 47.0962 1.8838 47.0533 1.85699Z" fill="#3124A1"/>
<path d="M0.928241 17.7696L0.701912 17.6278L0.688815 17.3658C0.68636 17.32 0.623741 17.2922 0.588134 17.321L0.384724 17.4866L0.1277 17.4131C0.0789963 17.3992 0.0356133 17.4461 0.0548492 17.4925L0.15594 17.7368L0.0100336 17.9533C-0.0175924 17.9943 0.0153542 18.0499 0.0658996 18.0471L0.331314 18.0325L0.498298 18.2398C0.530017 18.2789 0.59325 18.2669 0.605323 18.2184L0.668761 17.9652L0.918009 17.8768C0.96528 17.8598 0.97101 17.7964 0.928241 17.7696Z" fill="#3124A1"/>
<path d="M53.971 19.4576L53.7446 19.3156L53.7315 19.0537C53.7291 19.008 53.6665 18.98 53.6309 19.0091L53.4274 19.1744L53.1704 19.1012C53.1217 19.087 53.0785 19.1339 53.0976 19.1806L53.1987 19.4249L53.0528 19.6412C53.0251 19.6823 53.0581 19.7378 53.1086 19.7349L53.374 19.7206L53.541 19.9279C53.5727 19.9668 53.636 19.9547 53.648 19.9064L53.7115 19.6531L53.9607 19.5647C54.0082 19.5477 54.0137 19.4844 53.971 19.4576Z" fill="#3124A1"/>
<path d="M2.30587 2.79608C2.9648 2.79608 3.4987 3.33018 3.4987 3.98953C3.4987 4.64866 2.9648 5.18297 2.30587 5.18297C1.64694 5.18297 1.11304 4.64866 1.11304 3.98953C1.11304 3.33018 1.64694 2.79608 2.30587 2.79608Z" stroke="#EE8B60"/>
<path d="M30.732 2.39642C31.1711 2.39642 31.5274 2.7527 31.5274 3.19205C31.5274 3.63141 31.1711 3.98768 30.732 3.98768C30.2928 3.98768 29.9368 3.63141 29.9368 3.19205C29.9368 2.7527 30.2928 2.39642 30.732 2.39642Z" stroke="#EE8B60"/>
<path d="M6.67476 23.9323L6.65757 26.1558L4.88623 25.2532L6.67476 23.9323Z" stroke="#8B81EE"/>
<path d="M47.6745 7.51828L48.7334 8.42114L47.5879 8.90736L47.6745 7.51828Z" stroke="#8B81EE"/>
<path d="M43.6194 18.2245L44.9503 18.632L45.2636 19.9885L44.246 20.938L42.915 20.5308L42.6013 19.1742L43.6194 18.2245Z" stroke="#3124A1"/>
<path d="M12.2552 4.94354L13.147 4.94395L13.5934 5.71666L13.1477 6.48937L12.2552 6.48896L11.8093 5.71625L12.2552 4.94354Z" stroke="#3124A1"/>
<path d="M26.32 43.575C37.1698 43.575 45.9652 44.1248 45.9652 44.8028C45.9652 45.4807 37.1698 46.0306 26.32 46.0306C15.4701 46.0306 6.6748 45.4807 6.6748 44.8028C6.6748 44.1248 15.4701 43.575 26.32 43.575Z" fill="#14181B"/>
<path d="M30.9008 14.1072C30.5099 14.1072 30.1448 14.1565 29.8037 14.2441C29.9144 14.6268 30.0358 15.006 30.1581 15.3843C30.3924 15.3266 30.6392 15.2941 30.9008 15.2941C31.8902 15.2941 32.6954 16.0928 32.6954 17.0744C32.6954 18.0559 31.8902 18.8548 30.9008 18.8548H26.9492C27.3783 17.7665 28.3792 15.8221 30.1581 15.3843C30.0358 15.006 29.9144 14.6268 29.8037 14.2441C27.8832 14.7379 26.7305 16.472 26.1153 17.7747C25.6915 16.8772 25.0123 15.7752 24.0031 15.0148C23.7428 15.3172 23.4898 15.627 23.2531 15.9534C24.3074 16.7358 24.9552 18.0367 25.2798 18.8548H21.3299C20.3407 18.8548 19.5354 18.0559 19.5354 17.0744C19.5354 16.0928 20.3407 15.2941 21.3299 15.2941C22.0827 15.2941 22.7198 15.5577 23.2531 15.9534C23.4898 15.627 23.7428 15.3172 24.0031 15.0148C23.2872 14.4751 22.4055 14.1072 21.3299 14.1072C19.6809 14.1072 18.3391 15.4384 18.3391 17.0744C18.3391 18.7105 19.6809 20.0417 21.3299 20.0417H26.1153H30.9008C32.5499 20.0417 33.8915 18.7105 33.8915 17.0744C33.8915 15.4384 32.5499 14.1072 30.9008 14.1072Z" fill="#63FF00"/>
<path d="M38.6337 19.837H13.5968C12.938 19.837 12.4045 20.3683 12.4045 21.0239V24.5846C12.4045 25.2403 12.938 25.7715 13.5968 25.7715H38.6337C39.2924 25.7715 39.8259 25.2403 39.8259 24.5846V21.0239C39.8259 20.3683 39.2924 19.837 38.6337 19.837Z" fill="#3124A1"/>
<path d="M37.5751 25.7715H14.8604V43.6134C14.8604 44.2703 15.3953 44.8028 16.0558 44.8028H36.3796C37.0402 44.8028 37.5751 44.2703 37.5751 43.6134V25.7715Z" fill="#4B39EF"/>
<path d="M23.0459 19.837H28.9804V25.7715H23.0459V19.837Z" fill="#63FF00"/>
<path d="M23.0459 25.7715H28.9804V44.8539H23.0459V25.7715Z" fill="#63FF00"/>
</g>
<defs>
<clipPath id="clip0_601_2844">
<rect width="54" height="48" fill="white"/>
</clipPath>
</defs>
</svg>
