<svg width="54" height="48" viewBox="0 0 54 48" fill="none" xmlns="http://www.w3.org/2000/svg">
<g clip-path="url(#clip0_601_3070)">
<path d="M31.9609 10.393V47.8389" stroke="#27A797" stroke-width="0.5" stroke-miterlimit="10"/>
<path d="M31.961 18.9969L28.1406 11.3561" stroke="#27A797" stroke-width="0.5" stroke-miterlimit="10"/>
<path d="M31.9609 22.8173L35.7817 15.1765" stroke="#27A797" stroke-width="0.5" stroke-miterlimit="10"/>
<path d="M31.961 31.0265L28.1406 23.3857" stroke="#27A797" stroke-width="0.5" stroke-miterlimit="10"/>
<path d="M31.9609 34.8469L35.7817 27.2061" stroke="#27A797" stroke-width="0.5" stroke-miterlimit="10"/>
<path d="M31.961 43.0561L28.1406 35.4153" stroke="#27A797" stroke-width="0.5" stroke-miterlimit="10"/>
<path d="M31.9609 46.8764L35.7817 39.2357" stroke="#27A797" stroke-width="0.5" stroke-miterlimit="10"/>
<path d="M26.3591 13.1611C27.7418 15.1765 30.0397 15.1765 30.0397 15.1765C30.0397 15.1765 30.2577 12.5727 28.7791 9.78197C27.449 7.27143 25.4037 4.63978 24.9361 4.95925C24.4695 5.27736 23.9567 9.66221 26.3591 13.1611Z" fill="#27A797"/>
<path d="M26.3591 24.7008C27.7418 26.7162 30.0397 26.7162 30.0397 26.7162C30.0397 26.7162 30.2577 24.1125 28.7791 21.3211C27.449 18.8106 25.4037 16.1795 24.9361 16.4983C24.4695 16.8172 23.9567 21.2019 26.3591 24.7008Z" fill="#27A797"/>
<path d="M25.4514 35.4352C26.8341 37.4499 29.132 37.4499 29.132 37.4499C29.132 37.4499 29.3503 34.8462 27.8714 32.0548C26.5413 29.5449 24.4962 26.9132 24.029 27.232C23.5622 27.5515 23.0497 31.9356 25.4514 35.4352Z" fill="#27A797"/>
<path d="M37.5639 16.3731C36.1808 18.3879 33.8829 18.3879 33.8829 18.3879C33.8829 18.3879 33.6649 15.7841 35.1435 12.9934C36.4736 10.4828 38.5186 7.85182 38.9859 8.16998C39.4528 8.48945 39.9659 12.8735 37.5639 16.3731Z" fill="#27A797"/>
<path d="M37.5639 27.9123C36.1808 29.9276 33.8829 29.9276 33.8829 29.9276C33.8829 29.9276 33.6649 27.3232 35.1435 24.5332C36.4736 22.0226 38.5186 19.3909 38.9859 19.7104C39.4528 20.0285 39.9659 24.4134 37.5639 27.9123Z" fill="#27A797"/>
<path d="M38.4714 38.6466C37.0887 40.6613 34.7904 40.6613 34.7904 40.6613C34.7904 40.6613 34.5721 38.0575 36.051 35.2668C37.3815 32.7562 39.4261 30.1246 39.8937 30.444C40.3606 30.7622 40.8731 35.147 38.4714 38.6466Z" fill="#27A797"/>
<path d="M29.931 7.67342C30.0082 10.1161 31.9427 11.3561 31.9427 11.3561C31.9427 11.3561 33.5318 9.28146 33.792 6.13399C34.0262 3.30192 33.7234 -0.0165995 33.1584 6.24903e-05C32.5926 0.0159775 29.7959 3.43172 29.931 7.67342Z" fill="#27A797"/>
<path d="M45.2792 9.37927L41.3813 48" stroke="#27A797" stroke-width="0.5" stroke-miterlimit="10"/>
<path d="M47.3335 27.1812C47.1218 27.648 45.8304 29.5812 45.4015 29.3881C44.9724 29.1937 45.5681 26.9466 45.7794 26.4797C45.9906 26.0128 46.8009 25.6651 47.0867 25.7891C47.3722 25.9131 47.5443 26.7143 47.3335 27.1812Z" fill="#E86B7D"/>
<path d="M48.1229 27.7807C47.7295 28.1094 46.2143 29.8724 46.5164 30.2337C46.818 30.5956 48.8225 29.418 49.2158 29.0899C49.609 28.7608 49.7257 27.8872 49.5303 27.645C49.3342 27.4027 48.5165 27.4522 48.1229 27.7807Z" fill="#E86B7D"/>
<path d="M48.6077 27.6741C48.2772 28.1099 46.4722 29.8125 46.0719 29.5088C45.6718 29.205 46.8278 27.0085 47.1585 26.5733C47.4892 26.1375 48.2698 26.1615 48.4823 26.3351C48.6947 26.5087 48.9389 27.2389 48.6077 27.6741Z" fill="#EF8488"/>
<path d="M48.1362 29.758C47.3967 30.7318 45.562 30.8741 45.2988 30.674C45.0357 30.4745 44.7816 28.5352 45.42 27.6953L45.4305 28.1846L45.9942 28.1308L46.2039 28.7721L46.7994 28.7424L46.9143 29.3119L47.5098 29.2821L47.5303 29.7787L48.1362 29.758Z" fill="#27A797"/>
<path d="M46.5983 29.2765C46.5983 29.2765 43.0422 31.5442 42.5486 36.4347" stroke="#27A797" stroke-width="0.5" stroke-miterlimit="10"/>
<path d="M39.8284 25.2312C39.9422 25.7315 40.8213 27.8831 41.2799 27.7795C41.7401 27.6749 41.6048 25.3545 41.4913 24.8543C41.3778 24.3546 40.6528 23.8527 40.3478 23.9164C40.0436 23.9808 39.7148 24.7315 39.8284 25.2312Z" fill="#E86B7D"/>
<path d="M38.9356 25.661C39.2548 26.0621 40.3871 28.0918 40.0191 28.386C39.6508 28.6797 37.9223 27.1254 37.6027 26.7254C37.2825 26.3248 37.3431 25.445 37.5832 25.2473C37.8238 25.0485 38.6151 25.2609 38.9356 25.661Z" fill="#E86B7D"/>
<path d="M38.4806 25.46C38.7183 25.9526 40.1464 27.9821 40.5993 27.7638C41.0521 27.5461 40.3582 25.1636 40.1212 24.671C39.8839 24.1773 39.1143 24.0449 38.8714 24.1725C38.6285 24.3002 38.2439 24.9669 38.4806 25.46Z" fill="#EF8488"/>
<path d="M38.5269 27.5956C39.0569 28.6976 40.8261 29.2035 41.1236 29.0601C41.4216 28.9172 42.0578 27.0684 41.6001 26.1178L41.492 26.5946L40.9507 26.4298L40.6169 27.0157L40.0399 26.8676L39.8127 27.4026L39.2359 27.2544L39.116 27.7375L38.5269 27.5956Z" fill="#27A797"/>
<path d="M40.1301 27.4312C40.1301 27.4312 43.1611 30.3638 42.6675 35.2549" stroke="#27A797" stroke-width="0.5" stroke-miterlimit="10"/>
<path d="M45.111 42.7318C43.751 44.3387 41.7808 44.1399 41.7808 44.1399C41.7808 44.1399 41.8189 41.8888 43.3282 39.6243C44.686 37.5872 46.6665 35.5086 47.0394 35.8223C47.4124 36.136 47.4727 39.9394 45.111 42.7318Z" fill="#27A797"/>
<path d="M38.9334 40.5727C39.9448 42.4195 41.9144 42.6184 41.9144 42.6184C41.9144 42.6184 42.3271 40.4057 41.3007 37.8847C40.3779 35.618 38.8519 33.1849 38.424 33.4178C37.9959 33.6506 37.1769 37.3653 38.9334 40.5727Z" fill="#27A797"/>
<path d="M47.0929 23.0938C45.733 24.7013 43.7627 24.5025 43.7627 24.5025C43.7627 24.5025 43.8008 22.2515 45.3102 19.9864C46.6679 17.9499 48.6484 15.8712 49.0214 16.1849C49.3944 16.4987 49.4546 20.302 47.0929 23.0938Z" fill="#27A797"/>
<path d="M40.9153 20.936C41.9267 22.7829 43.8963 22.9817 43.8963 22.9817C43.8963 22.9817 44.3091 20.7679 43.2827 18.2475C42.3599 15.9801 40.8337 13.5482 40.406 13.7805C39.9778 14.0134 39.1588 17.7281 40.9153 20.936Z" fill="#27A797"/>
<path d="M47.9086 15.0109C46.5486 16.6184 44.5784 16.4196 44.5784 16.4196C44.5784 16.4196 44.6165 14.1686 46.1258 11.904C47.4837 9.86633 49.4641 7.7877 49.8371 8.10147C50.2101 8.41576 50.2704 12.2186 47.9086 15.0109Z" fill="#27A797"/>
<path d="M41.731 12.8524C42.7424 14.6993 44.712 14.8981 44.712 14.8981C44.712 14.8981 45.1247 12.6854 44.0984 10.1644C43.1756 7.89708 41.6495 5.46458 41.2216 5.69752C40.7935 5.93037 39.9745 9.64504 41.731 12.8524Z" fill="#27A797"/>
<path d="M44.0646 7.67332C43.8895 9.40789 45.1888 10.2745 45.1888 10.2745C45.1888 10.2745 46.6352 9.68502 46.8102 7.95041C47.0516 5.55851 46.5207 1.65808 46.0632 1.61188C45.6058 1.56572 44.306 5.28142 44.0646 7.67332Z" fill="#27A797"/>
<path d="M9.13525 13.1862L13.915 47.877" stroke="#27A797" stroke-width="0.5" stroke-miterlimit="10"/>
<path d="M17.7265 39.7304C16.5338 42.7115 13.5403 44.3171 13.5403 44.3171C13.5403 44.3171 12.4811 41.0896 13.6745 38.1091C14.8672 35.1281 17.8611 33.5224 17.8611 33.5224C17.8611 33.5224 18.9199 36.7499 17.7265 39.7304Z" fill="#27A797"/>
<path d="M7.83361 39.551C9.78865 42.0983 13.1046 42.8346 13.1046 42.8346C13.1046 42.8346 13.2512 39.441 11.2964 36.8936C9.34172 34.3469 6.02544 33.61 6.02544 33.61C6.02544 33.61 5.87894 37.0042 7.83361 39.551Z" fill="#27A797"/>
<path d="M16.2148 28.7598C15.0221 31.7408 12.0286 33.3464 12.0286 33.3464C12.0286 33.3464 10.9694 30.119 12.1628 27.1385C13.3555 24.1574 16.3493 22.5518 16.3493 22.5518C16.3493 22.5518 17.4083 25.7799 16.2148 28.7598Z" fill="#27A797"/>
<path d="M6.32204 28.5803C8.27709 31.1276 11.593 31.8639 11.593 31.8639C11.593 31.8639 11.7396 28.4704 9.78483 25.923C7.83016 23.3762 4.51397 22.64 4.51397 22.64C4.51397 22.64 4.36737 26.0335 6.32204 28.5803Z" fill="#27A797"/>
<path d="M14.7035 17.7897C13.5107 20.7701 10.5171 22.3757 10.5171 22.3757C10.5171 22.3757 9.45794 19.1483 10.6513 16.1671C11.8441 13.1867 14.8379 11.5811 14.8379 11.5811C14.8379 11.5811 15.8969 14.8092 14.7035 17.7897Z" fill="#27A797"/>
<path d="M4.81057 17.6097C6.76562 20.157 10.0815 20.8933 10.0815 20.8933C10.0815 20.8933 10.2281 17.4997 8.27336 14.9523C6.31869 12.4056 3.0025 11.6693 3.0025 11.6693C3.0025 11.6693 2.85581 15.0623 4.81057 17.6097Z" fill="#27A797"/>
<path d="M6.31294 8.69299C6.75114 11.8735 9.26849 14.1536 9.26849 14.1536C9.26849 14.1536 11.0754 11.2776 10.6372 8.09717C10.1989 4.91615 7.68146 2.63538 7.68146 2.63538C7.68146 2.63538 5.87464 5.51196 6.31294 8.69299Z" fill="#27A797"/>
<path d="M20.2019 10.3746V47.96" stroke="#27A797" stroke-width="0.5" stroke-miterlimit="10"/>
<path d="M20.202 19.0105L16.3677 11.3412" stroke="#27A797" stroke-width="0.5" stroke-miterlimit="10"/>
<path d="M20.2019 22.8451L24.0372 15.1758" stroke="#27A797" stroke-width="0.5" stroke-miterlimit="10"/>
<path d="M20.202 31.0849L16.3677 23.4156" stroke="#27A797" stroke-width="0.5" stroke-miterlimit="10"/>
<path d="M20.2019 34.9196L24.0372 27.2503" stroke="#27A797" stroke-width="0.5" stroke-miterlimit="10"/>
<path d="M20.202 43.1594L16.3677 35.4901" stroke="#27A797" stroke-width="0.5" stroke-miterlimit="10"/>
<path d="M20.2019 46.994L24.0372 39.3247" stroke="#27A797" stroke-width="0.5" stroke-miterlimit="10"/>
<path d="M18.8366 9.47629C19.7222 9.47097 19.838 10.3824 20.1871 10.3824C20.5372 10.3824 20.5148 9.57985 21.5383 9.47629C22.353 9.39344 23.0193 10.2352 23.0193 11.1705C23.0193 13.484 20.202 10.9184 20.202 10.9184C20.202 10.9184 17.3552 13.331 17.3552 11.1705C17.3552 10.2352 18.0182 9.48165 18.8366 9.47629Z" fill="#E98D94"/>
<path d="M14.8703 11.2957C15.517 10.8381 16.1166 11.5163 16.3731 11.3379C16.6293 11.1588 16.1547 10.5128 16.8521 9.91293C17.408 9.43458 18.3272 9.71116 18.8062 10.3972C19.9903 12.0941 16.8376 12.4075 16.8376 12.4075C16.8376 12.4075 15.7572 14.8819 14.6509 13.2973C14.1719 12.6112 14.2724 11.7186 14.8703 11.2957Z" fill="#E98D94"/>
<path d="M17.674 16.4288C17.6293 15.8516 18.2773 15.7307 18.2609 15.5022C18.2452 15.2744 17.664 15.3305 17.5492 14.6685C17.4576 14.1414 17.9737 13.6684 18.5816 13.625C20.085 13.5188 18.4571 15.4892 18.4571 15.4892C18.4571 15.4892 20.2477 17.2158 18.8438 17.316C18.2359 17.3594 17.7155 16.962 17.674 16.4288Z" fill="#E98D94"/>
<path d="M14.7914 23.3869C15.4387 22.9286 16.0373 23.6067 16.2945 23.4284C16.5507 23.25 16.076 22.6039 16.7732 22.004C17.3286 21.5257 18.2485 21.8023 18.7272 22.4884C19.9113 24.1852 16.6653 24.1486 16.6653 24.1486C16.6653 24.1486 15.6785 26.9724 14.5726 25.3884C14.0936 24.7017 14.1941 23.8098 14.7914 23.3869Z" fill="#E98D94"/>
<path d="M17.4673 28.1163C17.4222 27.5391 18.0706 27.4175 18.0545 27.1891C18.0384 26.9619 17.4572 27.0174 17.3427 26.3553C17.2508 25.8282 17.7676 25.3552 18.3748 25.3125C19.8783 25.2056 18.2849 27.0646 18.2849 27.0646C18.2849 27.0646 20.0406 28.9032 18.637 29.0028C18.0291 29.0462 17.5088 28.6487 17.4673 28.1163Z" fill="#E98D94"/>
<path d="M15.197 36.1404C15.8437 35.6827 16.4432 36.3608 16.6998 36.1818C16.956 36.0027 16.4813 35.3574 17.1788 34.7575C17.7346 34.2792 18.6538 34.5551 19.1328 35.2418C20.317 36.938 16.8376 36.3886 16.8376 36.3886C16.8376 36.3886 16.0839 39.7258 14.9776 38.1419C14.4986 37.4551 14.5991 36.5626 15.197 36.1404Z" fill="#E98D94"/>
<path d="M17.5227 40.3324C17.478 39.7559 18.126 39.6343 18.1095 39.4065C18.0939 39.1787 17.5126 39.2341 17.3978 38.5721C17.3062 38.0457 17.8223 37.572 18.4302 37.5292C19.9337 37.4223 18.457 39.3047 18.457 39.3047C18.457 39.3047 20.0964 41.12 18.6924 41.2195C18.0845 41.263 17.5642 40.8655 17.5227 40.3324Z" fill="#E98D94"/>
<path d="M25.7615 15.031C25.1139 14.5734 24.5153 15.2514 24.2584 15.0724C24.0022 14.894 24.4766 14.248 23.7794 13.6481C23.2239 13.1704 22.304 13.4457 21.8253 14.1331C20.6412 15.8293 23.9806 15.5132 23.9806 15.5132C23.9806 15.5132 24.8744 18.6177 25.9803 17.0325C26.4596 16.3464 26.3588 15.4538 25.7615 15.031Z" fill="#E98D94"/>
<path d="M23.0851 19.506C23.1302 18.9288 22.4819 18.8072 22.4982 18.5794C22.5142 18.3522 23.0955 18.4077 23.21 17.7456C23.3019 17.2186 22.7851 16.7456 22.1776 16.7028C20.6748 16.5959 22.3618 18.5943 22.3618 18.5943C22.3618 18.5943 20.5117 20.2937 21.9153 20.3925C22.5233 20.4359 23.044 20.0391 23.0851 19.506Z" fill="#E98D94"/>
<path d="M25.5201 27.2675C24.8731 26.8099 24.2734 27.4886 24.0169 27.3096C23.7604 27.1306 24.235 26.4852 23.5379 25.8853C22.9821 25.407 22.0625 25.6829 21.5835 26.3696C20.3997 28.0665 23.7391 27.9832 23.7391 27.9832C23.7391 27.9832 24.6329 30.8536 25.7392 29.269C26.2178 28.5829 26.1176 27.6903 25.5201 27.2675Z" fill="#E98D94"/>
<path d="M23.0953 31.8102C23.14 31.2337 22.492 31.1121 22.508 30.8843C22.5234 30.6565 23.1049 30.712 23.2195 30.0499C23.3111 29.5228 22.7953 29.0492 22.187 29.0071C20.6843 28.9002 22.1373 30.8992 22.1373 30.8992C22.1373 30.8992 20.5212 32.5979 21.9251 32.6974C22.5334 32.7408 23.0538 32.3434 23.0953 31.8102Z" fill="#E98D94"/>
<path d="M25.5201 39.2959C24.8731 38.8383 24.2734 39.5164 24.0169 39.3374C23.7604 39.1583 24.235 38.513 23.5379 37.9124C22.9821 37.4354 22.0625 37.7107 21.5835 38.3974C20.3997 40.0942 23.7391 40.0576 23.7391 40.0576C23.7391 40.0576 24.6329 42.8821 25.7392 41.2968C26.2178 40.6113 26.1176 39.7182 25.5201 39.2959Z" fill="#E98D94"/>
<path d="M22.9085 43.932C22.9533 43.3548 22.3052 43.2332 22.3213 43.0054C22.3367 42.7776 22.9182 42.833 23.0328 42.171C23.1243 41.6439 22.6086 41.1709 22.0003 41.1281C20.4975 41.0213 22.1372 42.9736 22.1372 42.9736C22.1372 42.9736 20.3345 44.7189 21.7384 44.8184C22.3467 44.8619 22.8671 44.4644 22.9085 43.932Z" fill="#E98D94"/>
</g>
<defs>
<clipPath id="clip0_601_3070">
<rect width="54" height="48" fill="white"/>
</clipPath>
</defs>
</svg>
