<svg width="54" height="48" viewBox="0 0 54 48" fill="none" xmlns="http://www.w3.org/2000/svg">
<g clip-path="url(#clip0_601_2914)">
<path d="M52.5706 18.5082C52.7631 18.3471 52.9739 18.2095 53.1987 18.0979C52.9741 17.985 52.7632 17.8463 52.5706 17.6846C52.3993 17.479 52.2496 17.2564 52.1239 17.0201C51.9981 17.2564 51.8484 17.479 51.6771 17.6846C51.4846 17.8457 51.2738 17.9832 51.049 18.0948C51.2738 18.2064 51.4846 18.3442 51.6771 18.5053C51.8484 18.7109 51.9981 18.9335 52.1239 19.1698C52.2499 18.9345 52.3994 18.7129 52.5706 18.5082Z" fill="#065A98"/>
<path d="M36.4278 8.63316C36.6607 8.43832 36.9156 8.27157 37.1873 8.13624C36.9156 8.00092 36.6607 7.83417 36.4278 7.63933C36.2214 7.39138 36.0409 7.12292 35.8895 6.83801C35.738 7.12292 35.5576 7.39138 35.3511 7.63933C35.1183 7.83417 34.8633 8.00092 34.5917 8.13624C34.8633 8.27157 35.1183 8.43832 35.3511 8.63316C35.5576 8.8811 35.738 9.14957 35.8895 9.43448C36.0409 9.14957 36.2214 8.8811 36.4278 8.63316Z" fill="#065A98"/>
<path d="M29.1662 39.171C29.3219 39.0406 29.4924 38.9291 29.6743 38.8388C29.4924 38.7484 29.3219 38.637 29.1662 38.5066C29.028 38.3408 28.9073 38.1611 28.8061 37.9705C28.7048 38.1611 28.5842 38.3408 28.4459 38.5066C28.2902 38.637 28.1197 38.7484 27.9378 38.8388C28.1197 38.9291 28.2902 39.0406 28.4459 39.171C28.5842 39.3367 28.7048 39.5164 28.8061 39.707C28.9073 39.5164 29.028 39.3367 29.1662 39.171Z" fill="#065A98"/>
<path d="M42.3886 11.8187C42.5443 11.6884 42.7148 11.5769 42.8967 11.4865C42.7148 11.3962 42.5443 11.2847 42.3886 11.1543C42.2504 10.9886 42.1298 10.8089 42.0285 10.6183C41.9272 10.8089 41.8066 10.9886 41.6683 11.1543C41.5126 11.2847 41.3421 11.3962 41.1602 11.4865C41.3421 11.5769 41.5126 11.6884 41.6683 11.8187C41.8066 11.9845 41.9272 12.1642 42.0285 12.3548C42.1298 12.1642 42.2504 11.9845 42.3886 11.8187Z" fill="#065A98"/>
<path d="M52.1769 6.09248C52.3326 5.9621 52.5032 5.85064 52.6851 5.76028C52.5032 5.66992 52.3326 5.55846 52.1769 5.42808C52.0387 5.26235 51.9181 5.08265 51.8168 4.89203C51.7155 5.08265 51.5949 5.26235 51.4567 5.42808C51.301 5.55846 51.1304 5.66992 50.9486 5.76028C51.1304 5.85064 51.301 5.9621 51.4567 6.09248C51.5949 6.25821 51.7155 6.43792 51.8168 6.62853C51.9181 6.43792 52.0387 6.25821 52.1769 6.09248Z" fill="#065A98"/>
<path d="M42.3886 30.1C42.5443 29.9696 42.7148 29.8581 42.8967 29.7678C42.7148 29.6774 42.5443 29.566 42.3886 29.4356C42.2504 29.2699 42.1298 29.0902 42.0285 28.8995C41.9272 29.0902 41.8066 29.2699 41.6683 29.4356C41.5126 29.566 41.3421 29.6774 41.1602 29.7678C41.3421 29.8581 41.5126 29.9696 41.6683 30.1C41.8066 30.2657 41.9272 30.4454 42.0285 30.636C42.1298 30.4454 42.2504 30.2657 42.3886 30.1Z" fill="#065A98"/>
<path d="M33.5273 20.9593C33.683 20.8289 33.8535 20.7175 34.0354 20.6271C33.8535 20.5367 33.683 20.4253 33.5273 20.2949C33.389 20.1292 33.2684 19.9495 33.1671 19.7589C33.0659 19.9495 32.9452 20.1292 32.807 20.2949C32.6513 20.4253 32.4808 20.5367 32.2989 20.6271C32.4808 20.7175 32.6513 20.8289 32.807 20.9593C32.9452 21.125 33.0659 21.3047 33.1671 21.4954C33.2684 21.3047 33.389 21.125 33.5273 20.9593Z" fill="#065A98"/>
<path d="M53.6372 10.1742C53.7486 10.0812 53.8702 10.0016 54 9.93701C53.8702 9.87226 53.7486 9.79266 53.6372 9.69968C53.5387 9.58138 53.4526 9.45319 53.3803 9.31714C53.308 9.45319 53.222 9.58138 53.1235 9.69968C53.0121 9.79266 52.8903 9.87226 52.7606 9.93701C52.8903 10.0018 53.0121 10.0814 53.1235 10.1743C53.222 10.2926 53.308 10.4208 53.3803 10.5569C53.4526 10.4208 53.5387 10.2926 53.6372 10.1742Z" fill="#065A98"/>
<path d="M48.073 5.67112C48.073 5.25482 47.7354 4.91724 47.3191 4.91724C46.9028 4.91724 46.5652 5.25482 46.5652 5.67112C46.5652 6.08742 46.9028 6.425 47.3191 6.425C47.7338 6.42093 48.0689 6.08582 48.073 5.67112Z" fill="#065A98"/>
<path d="M40.6326 19.4799C40.6327 19.0636 40.2951 18.726 39.8788 18.7258C39.4625 18.7257 39.1249 19.0631 39.1248 19.4794C39.1247 19.8957 39.4622 20.2334 39.8785 20.2336H39.8787C40.2932 20.2295 40.6283 19.8944 40.6326 19.4799Z" fill="#065A98"/>
<path d="M29.8167 22.1935C29.8167 21.7772 29.4791 21.4396 29.0628 21.4396C28.6465 21.4396 28.3089 21.7772 28.3089 22.1935C28.3089 22.6098 28.6465 22.9473 29.0628 22.9473C29.4775 22.9433 29.8126 22.6082 29.8167 22.1935Z" fill="#065A98"/>
<path d="M37.634 21.7469C37.634 21.5002 37.434 21.3002 37.1873 21.3002C36.9405 21.3002 36.7406 21.5002 36.7406 21.7469C36.7406 21.9935 36.9405 22.1936 37.1873 22.1936C37.4331 22.1913 37.6317 21.9926 37.634 21.7469Z" fill="#065A98"/>
<path d="M35.0376 37.3618C35.0376 37.115 34.8377 36.9151 34.5909 36.9151C34.3442 36.9151 34.1442 37.115 34.1442 37.3618C34.1442 37.6085 34.3441 37.8085 34.5909 37.8085C34.8366 37.8062 35.0353 37.6076 35.0376 37.3618Z" fill="#065A98"/>
<path d="M46.2329 39.104C46.2329 38.8572 46.033 38.6573 45.7862 38.6573C45.5396 38.6573 45.3395 38.8572 45.3395 39.104C45.3395 39.3506 45.5394 39.5507 45.7862 39.5507C46.032 39.5484 46.2306 39.3498 46.2329 39.104Z" fill="#065A98"/>
<path d="M47.3777 9.19708C47.3777 8.9503 47.1778 8.75037 46.931 8.75037C46.6842 8.75037 46.4843 8.95044 46.4843 9.19708C46.4843 9.44386 46.6842 9.64379 46.931 9.64379C47.1767 9.64146 47.3754 9.44284 47.3777 9.19708Z" fill="#065A98"/>
<path d="M53.1904 29.6423C53.1904 29.3957 52.9905 29.1956 52.7437 29.1956C52.4969 29.1956 52.297 29.3957 52.297 29.6423C52.297 29.889 52.4969 30.089 52.7437 30.089C52.9895 30.0867 53.1881 29.8881 53.1904 29.6423Z" fill="#065A98"/>
<path d="M33.167 40.8016C33.167 40.5548 32.9671 40.3549 32.7203 40.3549C32.4736 40.3549 32.2736 40.5548 32.2736 40.8016C32.2736 41.0482 32.4735 41.2483 32.7203 41.2483C32.966 41.246 33.1647 41.0473 33.167 40.8016Z" fill="#065A98"/>
<path d="M39.7725 38.6573C39.7725 38.4105 39.5725 38.2106 39.3257 38.2106C39.0791 38.2106 38.879 38.4105 38.879 38.6573C38.879 38.9039 39.079 39.104 39.3257 39.104C39.5715 39.1017 39.7701 38.903 39.7725 38.6573Z" fill="#065A98"/>
<path d="M53.3804 41.3597C53.378 41.114 53.1793 40.9154 52.9335 40.913H52.8221C52.5753 40.913 52.3752 41.1131 52.3752 41.3597C52.3752 41.6065 52.5753 41.8065 52.8221 41.8065H52.9335C53.1793 41.8041 53.378 41.6055 53.3804 41.3597Z" fill="#065A98"/>
<path d="M53.3804 35.7538C53.378 35.5081 53.1793 35.3095 52.9335 35.3071H52.8221C52.5753 35.3071 52.3752 35.5072 52.3752 35.7538C52.3752 36.0006 52.5753 36.2006 52.8221 36.2006H52.9335C53.1793 36.1982 53.378 35.9996 53.3804 35.7538Z" fill="#065A98"/>
<path d="M35.6433 5.33874C35.6433 5.09196 35.4432 4.89203 35.1966 4.89203C34.9498 4.89203 34.7499 5.09196 34.7499 5.33874C34.7499 5.58552 34.9498 5.78545 35.1966 5.78545C35.4424 5.78313 35.641 5.58451 35.6433 5.33874Z" fill="#065A98"/>
<path d="M31.9858 6.71234C31.9858 6.46555 31.7858 6.26562 31.5391 6.26562C31.2923 6.26562 31.0924 6.46555 31.0924 6.71234C31.0924 6.95912 31.2923 7.15905 31.5391 7.15905C31.7849 7.15672 31.9835 6.9581 31.9858 6.71234Z" fill="#065A98"/>
<path d="M24.6328 18.5082C24.8253 18.3471 25.0362 18.2095 25.261 18.0979C25.0363 17.985 24.8255 17.8463 24.6328 17.6846C24.4616 17.479 24.3118 17.2564 24.1861 17.0201C24.0604 17.2564 23.9107 17.479 23.7394 17.6846C23.5469 17.8457 23.336 17.9832 23.1112 18.0948C23.336 18.2064 23.5469 18.3442 23.7394 18.5053C23.9107 18.7109 24.0604 18.9335 24.1861 19.1698C24.3121 18.9345 24.4617 18.7129 24.6328 18.5082Z" fill="#065A98"/>
<path d="M8.4901 8.63316C8.72291 8.43832 8.97785 8.27157 9.24951 8.13624C8.97785 8.00092 8.72291 7.83417 8.4901 7.63933C8.28362 7.39138 8.10319 7.12292 7.95172 6.83801C7.80024 7.12292 7.61981 7.39138 7.41333 7.63933C7.18052 7.83417 6.92559 8.00092 6.65392 8.13624C6.92559 8.27157 7.18052 8.43832 7.41333 8.63316C7.61981 8.8811 7.80024 9.14957 7.95172 9.43448C8.10319 9.14957 8.28362 8.8811 8.4901 8.63316Z" fill="#065A98"/>
<path d="M1.22845 39.171C1.38415 39.0406 1.55469 38.9291 1.73657 38.8388C1.55469 38.7484 1.38415 38.637 1.22845 38.5066C1.09022 38.3408 0.969594 38.1611 0.86832 37.9705C0.767045 38.1611 0.646419 38.3408 0.508185 38.5066C0.35249 38.637 0.181954 38.7484 6.7234e-05 38.8388C0.181954 38.9291 0.35249 39.0406 0.508185 39.171C0.646419 39.3367 0.767045 39.5164 0.86832 39.707C0.969594 39.5164 1.09022 39.3367 1.22845 39.171Z" fill="#065A98"/>
<path d="M14.4509 11.8187C14.6066 11.6884 14.7771 11.5769 14.959 11.4865C14.7771 11.3962 14.6066 11.2847 14.4509 11.1543C14.3126 10.9886 14.192 10.8089 14.0907 10.6183C13.9895 10.8089 13.8688 10.9886 13.7306 11.1543C13.5749 11.2847 13.4044 11.3962 13.2225 11.4865C13.4044 11.5769 13.5749 11.6884 13.7306 11.8187C13.8688 11.9845 13.9895 12.1642 14.0907 12.3548C14.192 12.1642 14.3126 11.9845 14.4509 11.8187Z" fill="#065A98"/>
<path d="M24.2394 6.09248C24.3951 5.9621 24.5657 5.85064 24.7476 5.76028C24.5657 5.66992 24.3951 5.55846 24.2394 5.42808C24.1012 5.26235 23.9806 5.08265 23.8793 4.89203C23.778 5.08265 23.6574 5.26235 23.5192 5.42808C23.3635 5.55846 23.1929 5.66992 23.0111 5.76028C23.1929 5.85064 23.3635 5.9621 23.5192 6.09248C23.6574 6.25821 23.778 6.43792 23.8793 6.62853C23.9806 6.43792 24.1012 6.25821 24.2394 6.09248Z" fill="#065A98"/>
<path d="M14.4509 30.1C14.6066 29.9696 14.7771 29.8581 14.959 29.7678C14.7771 29.6774 14.6066 29.566 14.4509 29.4356C14.3126 29.2699 14.192 29.0902 14.0907 28.8995C13.9895 29.0902 13.8688 29.2699 13.7306 29.4356C13.5749 29.566 13.4044 29.6774 13.2225 29.7678C13.4044 29.8581 13.5749 29.9696 13.7306 30.1C13.8688 30.2657 13.9895 30.4454 14.0907 30.636C14.192 30.4454 14.3126 30.2657 14.4509 30.1Z" fill="#065A98"/>
<path d="M5.58954 20.9593C5.74523 20.8289 5.91577 20.7175 6.09766 20.6271C5.91577 20.5367 5.74523 20.4253 5.58954 20.2949C5.45131 20.1292 5.33068 19.9495 5.2294 19.7589C5.12813 19.9495 5.0075 20.1292 4.86927 20.2949C4.71357 20.4253 4.54304 20.5367 4.36115 20.6271C4.54304 20.7175 4.71357 20.8289 4.86927 20.9593C5.0075 21.125 5.12813 21.3047 5.2294 21.4954C5.33068 21.3047 5.45131 21.125 5.58954 20.9593Z" fill="#065A98"/>
<path d="M25.6996 10.1742C25.8109 10.0812 25.9327 10.0016 26.0625 9.93701C25.9327 9.87226 25.8109 9.79266 25.6996 9.69968C25.6011 9.58138 25.5148 9.45319 25.4425 9.31714C25.3702 9.45319 25.2843 9.58138 25.1858 9.69968C25.0745 9.79266 24.9526 9.87226 24.8228 9.93701C24.9526 10.0018 25.0745 10.0814 25.1858 10.1743C25.2843 10.2926 25.3702 10.4208 25.4425 10.5569C25.5148 10.4208 25.6011 10.2926 25.6996 10.1742Z" fill="#065A98"/>
<path d="M20.1353 5.67112C20.1353 5.25482 19.7977 4.91724 19.3814 4.91724C18.9651 4.91724 18.6275 5.25482 18.6275 5.67112C18.6275 6.08742 18.9651 6.425 19.3814 6.425C19.7961 6.42093 20.1312 6.08582 20.1353 5.67112Z" fill="#065A98"/>
<path d="M12.6948 19.4799C12.695 19.0636 12.3574 18.726 11.9411 18.7258C11.5248 18.7257 11.1872 19.0631 11.1871 19.4794C11.1869 19.8957 11.5245 20.2334 11.9408 20.2336H11.9409C12.3555 20.2295 12.6906 19.8944 12.6948 19.4799Z" fill="#065A98"/>
<path d="M1.87891 22.1935C1.87891 21.7772 1.54133 21.4396 1.12502 21.4396C0.708722 21.4396 0.371141 21.7772 0.371141 22.1935C0.371141 22.6098 0.708722 22.9473 1.12502 22.9473C1.53972 22.9433 1.87483 22.6082 1.87891 22.1935Z" fill="#065A98"/>
<path d="M9.69629 21.7469C9.69629 21.5002 9.49621 21.3002 9.24958 21.3002C9.00279 21.3002 8.80286 21.5002 8.80286 21.7469C8.80286 21.9935 9.00279 22.1936 9.24958 22.1936C9.49534 22.1913 9.69396 21.9926 9.69629 21.7469Z" fill="#065A98"/>
<path d="M7.09985 37.3618C7.09985 37.115 6.89992 36.9151 6.65314 36.9151C6.4065 36.9151 6.20643 37.115 6.20643 37.3618C6.20643 37.6085 6.40636 37.8085 6.65314 37.8085C6.89891 37.8062 7.09753 37.6076 7.09985 37.3618Z" fill="#065A98"/>
<path d="M18.2954 39.104C18.2954 38.8572 18.0955 38.6573 17.8487 38.6573C17.6021 38.6573 17.402 38.8572 17.402 39.104C17.402 39.3506 17.6019 39.5507 17.8487 39.5507C18.0945 39.5484 18.2931 39.3498 18.2954 39.104Z" fill="#065A98"/>
<path d="M19.4399 9.19708C19.4399 8.9503 19.24 8.75037 18.9932 8.75037C18.7464 8.75037 18.5465 8.95044 18.5465 9.19708C18.5465 9.44386 18.7464 9.64379 18.9932 9.64379C19.239 9.64146 19.4376 9.44284 19.4399 9.19708Z" fill="#065A98"/>
<path d="M25.2527 29.6423C25.2527 29.3957 25.0528 29.1956 24.806 29.1956C24.5592 29.1956 24.3593 29.3957 24.3593 29.6423C24.3593 29.889 24.5592 30.089 24.806 30.089C25.0517 30.0867 25.2504 29.8881 25.2527 29.6423Z" fill="#065A98"/>
<path d="M5.22925 40.8016C5.22925 40.5548 5.02932 40.3549 4.78254 40.3549C4.5359 40.3549 4.33582 40.5548 4.33582 40.8016C4.33582 41.0482 4.53575 41.2483 4.78254 41.2483C5.0283 41.246 5.22692 41.0473 5.22925 40.8016Z" fill="#065A98"/>
<path d="M11.8347 38.6573C11.8347 38.4105 11.6348 38.2106 11.388 38.2106C11.1414 38.2106 10.9413 38.4105 10.9413 38.6573C10.9413 38.9039 11.1412 39.104 11.388 39.104C11.6338 39.1017 11.8324 38.903 11.8347 38.6573Z" fill="#065A98"/>
<path d="M25.4426 41.3597C25.4403 41.114 25.2415 40.9154 24.9958 40.913H24.8843C24.6375 40.913 24.4375 41.1131 24.4375 41.3597C24.4375 41.6065 24.6375 41.8065 24.8843 41.8065H24.9958C25.2415 41.8041 25.4403 41.6055 25.4426 41.3597Z" fill="#065A98"/>
<path d="M25.4426 35.7538C25.4403 35.5081 25.2415 35.3095 24.9958 35.3071H24.8843C24.6375 35.3071 24.4375 35.5072 24.4375 35.7538C24.4375 36.0006 24.6375 36.2006 24.8843 36.2006H24.9958C25.2415 36.1982 25.4403 35.9996 25.4426 35.7538Z" fill="#065A98"/>
<path d="M7.70557 5.33874C7.70557 5.09196 7.50549 4.89203 7.25885 4.89203C7.01207 4.89203 6.81214 5.09196 6.81214 5.33874C6.81214 5.58552 7.01207 5.78545 7.25885 5.78545C7.50462 5.78313 7.70324 5.58451 7.70557 5.33874Z" fill="#065A98"/>
<path d="M4.0481 6.71234C4.0481 6.46555 3.84802 6.26562 3.60138 6.26562C3.3546 6.26562 3.15467 6.46555 3.15467 6.71234C3.15467 6.95912 3.3546 7.15905 3.60138 7.15905C3.84715 7.15672 4.04577 6.9581 4.0481 6.71234Z" fill="#065A98"/>
<path d="M32.668 13.8132C34.4758 13.8132 35.9412 15.2786 35.9412 17.0864C35.9412 18.8942 34.4758 20.3596 32.668 20.3596C30.8602 20.3596 29.3948 18.8942 29.3948 17.0864C29.3948 15.2786 30.8602 13.8132 32.668 13.8132Z" fill="#3B2314"/>
<path d="M35.2319 20.6608C35.2371 20.6844 35.24 20.7084 35.2408 20.7326C35.2408 21.9494 34.6974 26.3318 34.6974 26.3318L34.5089 28.3473L34.3203 30.3274L34.3293 30.6237H22.9648L22.9827 30.3274L22.9063 29.5865L22.4574 25.2716C22.4574 25.2716 21.9995 21.9536 21.9995 20.7369C22.0003 20.7126 22.0033 20.6886 22.0085 20.665L21.9995 20.5886H22.0265C22.1208 20.3237 22.4575 20.0685 22.9245 19.8297C23.3016 19.6451 23.6901 19.4845 24.0875 19.3493C25.1702 18.9927 26.2738 18.7032 27.3923 18.4826H29.8484C29.8484 18.4826 34.8099 19.4344 35.214 20.5885H35.241L35.2319 20.6608Z" fill="#8D0000"/>
<path d="M25.0392 31.4143L28.7212 31.3829L32.4031 31.4143H34.3293V30.624H22.9333V31.4143H25.0392Z" fill="#E6E6E6"/>
<path d="M34.3965 31.464C34.3738 31.4497 34.3497 31.4379 34.3247 31.4283L23.1537 31.3828C23.0649 31.4359 22.9794 31.4944 22.8977 31.558C22.2735 32.0428 20.3877 34.2386 18.4839 43.6857H38.9496C36.8661 33.3316 34.8009 31.6926 34.3965 31.464Z" fill="#F77800"/>
<path d="M28.6853 4.18646C32.6406 4.18646 35.847 7.39288 35.847 11.3481C35.847 15.3034 32.6406 18.5098 28.6853 18.5098C24.7301 18.5098 21.5237 15.3034 21.5237 11.3481C21.5237 7.39288 24.7301 4.18646 28.6853 4.18646Z" fill="#3B2314"/>
<path d="M28.6853 4.18646C32.6406 4.18646 35.847 7.39288 35.847 11.3481C35.847 15.3034 32.6406 18.5098 28.6853 18.5098C24.7301 18.5098 21.5237 15.3034 21.5237 11.3481C21.5237 7.39288 24.7301 4.18646 28.6853 4.18646Z" stroke="black" stroke-width="0.858" stroke-miterlimit="10"/>
<path d="M22.1119 10.5443C22.1119 10.9357 22.1462 11.3263 22.2149 11.7117C22.861 15.2677 26.2677 17.6267 29.8237 16.9806C32.5061 16.4933 34.6053 14.3941 35.0926 11.7117C35.1151 11.5904 35.1331 11.4737 35.1464 11.3525C35.1728 11.1454 35.1877 10.937 35.1913 10.7283C35.1913 10.67 35.1958 10.6071 35.1958 10.5495V10.4731C35.1895 9.79974 35.0774 9.13154 34.8636 8.49308C33.7263 5.06203 30.0229 3.20258 26.5918 4.33971C24.5755 5.00807 23.0088 6.61347 22.39 8.64571C22.2107 9.23865 22.1155 9.8537 22.1072 10.4731C22.1112 10.4967 22.1129 10.5204 22.1119 10.5443Z" fill="#F8A088"/>
<path d="M25.8433 13.0902C25.8995 14.5558 27.133 15.6983 28.5986 15.6421C29.9854 15.5889 31.0974 14.477 31.1505 13.0902H25.8433Z" fill="white"/>
<path d="M22.112 10.5442C22.1129 14.1581 25.0434 17.0872 28.6573 17.0864C29.8318 17.0861 30.9844 16.7696 31.9944 16.1705C28.722 17.7116 24.82 16.3079 23.2792 13.0356C22.8691 12.1651 22.6562 11.2149 22.655 10.2526V10.1762C22.6804 7.89661 23.8921 5.79497 25.8522 4.63086C23.5912 5.70135 22.138 7.96666 22.1074 10.468C22.1113 10.4932 22.1128 10.5187 22.112 10.5442Z" fill="#EB9A83"/>
<path d="M29.9605 11.0786H35.1735L35.1465 11.3481C35.133 11.4694 35.1152 11.5905 35.0926 11.7072H29.5027L28.38 8.77983L28.2903 8.63615L28.618 7.85498L29.9605 11.0786Z" fill="#EB9A83"/>
<path d="M26.7639 11.0786L26.5347 11.7125H22.2112C22.1752 11.5059 22.1482 11.2946 22.1299 11.0786H26.7639Z" fill="#EB9A83"/>
<path d="M21.4878 11.0786C21.534 7.12337 24.7776 3.95434 28.733 4.0005C32.6232 4.04585 35.7658 7.18839 35.8111 11.0786H29.9607L28.6135 7.85448L28.2857 8.63597L27.2664 11.0741H21.4878V11.0786Z" fill="#3B2314"/>
<path d="M27.3518 16.9606V18.4828L28.6182 20.7316L29.8484 18.482V16.9606H27.3518Z" fill="#EB9A83"/>
<path d="M35.241 20.5843L36.7408 25.6942L33.7097 26.3093L35.241 20.5843Z" fill="#F8A088"/>
<path d="M30.23 11.7073C30.8585 11.7073 30.8585 12.6819 30.23 12.6819C29.6014 12.6819 29.6014 11.7073 30.23 11.7073Z" fill="#3B2314"/>
<path d="M27.0105 11.7073C26.3819 11.7073 26.3819 12.6819 27.0105 12.6819C27.639 12.6819 27.6392 11.7073 27.0105 11.7073Z" fill="#3B2314"/>
<path d="M28.4968 16.9606C28.5599 17.7091 29.108 18.3269 29.8436 18.4784V16.9606H28.4968Z" fill="#F8A088"/>
<path d="M24.8701 19.44L33.7786 23.5618C32.3335 21.3843 30.2507 19.7064 27.8157 18.7575C26.5225 18.25 26.5225 18.25 25.611 18.1379C25.4419 18.5998 25.1976 19.0307 24.888 19.413C24.8826 19.4224 24.8766 19.4314 24.8701 19.44Z" fill="white"/>
<path d="M18.4672 13.3694C19.7706 12.1761 21.6585 11.8708 23.2716 12.5927C23.3964 12.6468 23.5178 12.7084 23.6353 12.7768C25.7622 13.9799 26.5108 16.6794 25.3079 18.8061C24.1047 20.9329 21.4053 21.6817 19.2785 20.4786C18.2291 19.885 17.4674 18.8888 17.1697 17.7205C17.1144 17.4976 17.0754 17.2711 17.053 17.0425C17.0395 16.9078 17.0349 16.7686 17.0349 16.6295C17.0328 15.3898 17.5526 14.2064 18.4672 13.3694Z" fill="#F8C5B8"/>
<path d="M22.9172 17.1232C22.7532 17.2384 22.7134 17.4648 22.8286 17.6288C22.8538 17.6648 22.8855 17.6956 22.9217 17.7204C23.6121 18.1805 24.5447 17.9939 25.0049 17.3036C25.2365 16.9563 25.313 16.5281 25.2162 16.1219C25.1674 15.9267 24.9697 15.8077 24.7744 15.8565C24.7316 15.8672 24.6912 15.8854 24.6549 15.9106L22.9172 17.1232Z" fill="white"/>
<path d="M16.2224 20.2976C16.2269 20.3424 16.2269 20.392 16.2313 20.4368C16.2358 20.4773 16.2358 20.5181 16.2402 20.5581C16.2396 20.5718 16.241 20.5852 16.2448 20.5984C16.2493 20.6389 16.2493 20.675 16.2537 20.7109V20.7197L16.2672 20.8546C16.2807 20.9669 16.2942 21.0745 16.3077 21.1866C16.3116 21.2229 16.3176 21.259 16.3257 21.2946C16.3303 21.3126 16.3303 21.3258 16.3347 21.3432C16.3392 21.3791 16.3482 21.415 16.3525 21.4509C16.3571 21.4688 16.3571 21.4825 16.3615 21.4999L16.375 21.5811C16.3787 21.6115 16.3847 21.6414 16.3929 21.6709C16.4333 21.8822 16.4826 22.0935 16.5411 22.2994L16.5681 22.3938C16.577 22.4208 16.5861 22.4522 16.5951 22.4792C16.5952 22.4874 16.5986 22.4954 16.6042 22.5016C16.6177 22.5421 16.6264 22.5827 16.6399 22.6181C16.6887 22.7708 16.7387 22.919 16.7925 23.0671C16.8047 23.1069 16.8197 23.1461 16.8374 23.1839C16.842 23.1885 16.842 23.1927 16.842 23.2018C16.8598 23.2467 16.8779 23.2871 16.8907 23.3318C16.8958 23.34 16.8988 23.3492 16.8998 23.3588C16.9133 23.3858 16.9221 23.4172 16.9356 23.4442C16.9491 23.4711 16.958 23.4981 16.9715 23.5254C17.0074 23.6108 17.0479 23.6963 17.0882 23.7816C17.1062 23.8175 17.1196 23.8487 17.137 23.8846L17.1506 23.9118C17.1638 23.9425 17.1787 23.9726 17.1955 24.0015L17.2177 24.0464L17.2582 24.1276C17.2761 24.1636 17.2941 24.1995 17.3166 24.24C17.3346 24.2713 17.3479 24.3027 17.3653 24.3295C17.3788 24.3519 17.3879 24.3745 17.4014 24.3926C17.4238 24.4331 17.4463 24.4737 17.4733 24.5181C19.7844 28.4946 24.6577 30.1808 28.9321 28.4827C30.8243 27.7344 32.4172 26.3837 33.4649 24.6395C33.6373 24.3537 33.7932 24.0586 33.9319 23.7551C33.9454 23.7237 33.9588 23.6922 33.9767 23.6563L21.4532 17.8595L17.4123 15.9873L17.1197 15.8524C17.1062 15.8838 17.0884 15.9155 17.0749 15.9469C16.4411 17.3063 16.1486 18.7996 16.2224 20.2976Z" fill="white"/>
<path d="M16.2222 20.2976C16.4721 25.4218 20.8286 29.3735 25.953 29.1236C29.0471 28.9728 31.8625 27.2894 33.4597 24.6351C33.6322 24.3494 33.7881 24.054 33.9267 23.7506C33.9402 23.7192 33.9537 23.6877 33.9716 23.6517L33.9581 23.6472C33.7456 24.0053 33.5054 24.3459 33.2397 24.6665C30.336 28.1864 25.1288 28.6862 21.6088 25.7826C18.9571 23.5953 17.9367 19.9949 19.0465 16.7417L17.4166 15.9873L17.124 15.8526C17.1105 15.884 17.0926 15.9155 17.0791 15.9469C16.442 17.3052 16.1478 18.799 16.2222 20.2976Z" fill="#F0F1F1"/>
<path d="M16.2222 20.2975C16.2267 20.3424 16.2267 20.392 16.2311 20.4368C16.2357 20.4773 16.2357 20.5181 16.24 20.5581C16.2394 20.5718 16.2409 20.5854 16.2446 20.5986C16.2491 20.639 16.2491 20.675 16.2535 20.7109V20.7198L16.267 20.8546C16.2805 20.9669 16.294 21.0745 16.3075 21.1866C16.3114 21.2229 16.3174 21.259 16.3255 21.2946C16.3301 21.3126 16.3301 21.3259 16.3345 21.3433C16.339 21.3792 16.348 21.415 16.3524 21.4509C16.3569 21.469 16.3569 21.4825 16.3613 21.4999L16.3748 21.5811C16.3787 21.6114 16.3847 21.6414 16.3928 21.6708C16.4333 21.8821 16.4826 22.0933 16.5411 22.2992L16.5681 22.3937C16.577 22.4206 16.5859 22.452 16.595 22.479C16.5952 22.4873 16.5984 22.4952 16.604 22.5014C16.6175 22.5419 16.6264 22.5825 16.6399 22.618C16.6887 22.7706 16.7387 22.919 16.7925 23.0671C16.8047 23.1069 16.8197 23.1459 16.8374 23.1838C16.8419 23.1883 16.8419 23.1925 16.8419 23.2016C16.86 23.2465 16.8779 23.2871 16.8907 23.3318C16.8957 23.34 16.8987 23.3491 16.8996 23.3587C16.9131 23.3856 16.9221 23.417 16.9356 23.444C16.949 23.471 16.958 23.4978 16.9715 23.5253C17.0074 23.6106 17.0479 23.6961 17.0882 23.7814C17.1062 23.8173 17.1195 23.8487 17.1369 23.8846L17.1504 23.9115C17.1636 23.9422 17.1786 23.9724 17.1953 24.0013L17.2177 24.0462L17.2582 24.1275C17.2761 24.1634 17.2941 24.1993 17.3165 24.2398C17.3346 24.2712 17.3479 24.3027 17.3653 24.3295C17.3788 24.3519 17.3877 24.3744 17.4012 24.3924C17.4237 24.4329 17.4461 24.4737 17.4731 24.5181L22.255 27.082L22.2685 27.0595C22.537 27.2063 22.8442 27.2672 23.1485 27.2344C23.114 27.4075 23.1109 27.5855 23.1395 27.7597C23.2679 28.6061 24.0576 29.1888 24.9042 29.062L24.9088 29.0888L28.932 28.4827C30.8233 27.7339 32.4153 26.3832 33.4624 24.6393L33.2423 24.6707L24.5288 25.9864C24.6578 25.3205 24.3371 24.6484 23.7385 24.3297L18.9476 21.7617L16.2222 20.2975Z" fill="#F0F1F1"/>
<path d="M24.8389 19.4265L24.8657 19.44L33.774 23.5619C32.3289 21.3843 30.2462 19.7064 27.8111 18.7575L24.879 19.413L24.8389 19.4265Z" fill="#F3DDAA"/>
<path d="M23.9209 14.0877C24.5494 14.0877 24.5494 15.0623 23.9209 15.0623C23.2923 15.0623 23.2923 14.0877 23.9209 14.0877Z" fill="#3B2314"/>
<path d="M22.2776 15.4886C22.9061 15.4886 22.9061 16.4632 22.2776 16.4632C21.649 16.4632 21.649 15.4886 22.2776 15.4886Z" fill="#3B2314"/>
<path d="M15.1973 17.9845C15.6009 17.2306 16.5393 16.9465 17.2931 17.3501C17.2934 17.3502 17.2938 17.3504 17.2941 17.3506L25.6906 21.855C26.4446 22.2593 26.7284 23.1982 26.3241 23.9523C25.9199 24.7063 24.9809 24.9899 24.2269 24.5857L24.2134 24.6081L15.8169 20.1038L15.8303 20.0814C15.0766 19.6775 14.7929 18.7391 15.1968 17.9853C15.197 17.9851 15.1972 17.9848 15.1973 17.9845Z" fill="#F8A088"/>
<path d="M15.1974 17.9844C15.3947 17.6178 15.7314 17.3458 16.1314 17.2301C16.0498 17.3221 15.9789 17.423 15.9201 17.531C15.5924 18.141 15.7099 18.8943 16.2078 19.3756C16.3106 19.4753 16.427 19.5599 16.5535 19.6271L16.54 19.6495L17.3213 20.0671L23.4188 23.3359L24.5683 23.9511L24.941 24.1486L24.9545 24.1262C25.311 24.3183 25.729 24.3619 26.1175 24.2474C25.6409 24.7799 24.8619 24.9173 24.232 24.5797L24.2185 24.6021L15.8216 20.0993L15.8351 20.0768C15.0828 19.6804 14.7943 18.749 15.1909 17.9968C15.193 17.9927 15.1951 17.9885 15.1974 17.9844Z" fill="#EB9A83"/>
<path d="M25.8343 24.0675L35.3574 24.4688C36.213 24.505 36.8774 25.228 36.841 26.0837C36.8048 26.9395 36.0818 27.6037 35.2261 27.5675L35.2254 27.5948L25.7068 27.1946L25.7075 27.1672C24.8518 27.1258 24.1918 26.3984 24.2333 25.5428C24.2742 24.6962 24.9872 24.0393 25.8343 24.0675Z" fill="#F8A088"/>
<path d="M24.2201 25.5466C24.1847 26.4019 24.8484 27.1246 25.7038 27.1615L25.7031 27.1889L35.2218 27.5891L35.2224 27.5619C35.9447 27.5891 36.5911 27.1166 36.7846 26.4202C36.4758 26.7548 36.0358 26.9366 35.5809 26.9179L35.5802 26.9453L26.0571 26.5442L26.0577 26.517C25.2029 26.4791 24.5396 25.7569 24.5741 24.902C24.5784 24.7864 24.596 24.6717 24.6268 24.5602C24.3805 24.8317 24.2367 25.1804 24.2201 25.5466Z" fill="#EB9A83"/>
</g>
<defs>
<clipPath id="clip0_601_2914">
<rect width="54" height="48" fill="white"/>
</clipPath>
</defs>
</svg>
