<svg width="30" height="30" viewBox="0 0 30 30" fill="none" xmlns="http://www.w3.org/2000/svg">
<path d="M10 20C11.3807 20 12.5 18.8807 12.5 17.5C12.5 16.1193 11.3807 15 10 15C8.61929 15 7.5 16.1193 7.5 17.5C7.5 18.8807 8.61929 20 10 20Z" fill="#8711FD" stroke="#5500AA" stroke-width="2" stroke-linecap="round" stroke-linejoin="round"/>
<path d="M20 20C21.3807 20 22.5 18.8807 22.5 17.5C22.5 16.1193 21.3807 15 20 15C18.6193 15 17.5 16.1193 17.5 17.5C17.5 18.8807 18.6193 20 20 20Z" fill="#8711FD" stroke="#5500AA" stroke-width="2" stroke-linecap="round" stroke-linejoin="round"/>
<path d="M15 10C16.3807 10 17.5 8.88071 17.5 7.5C17.5 6.11929 16.3807 5 15 5C13.6193 5 12.5 6.11929 12.5 7.5C12.5 8.88071 13.6193 10 15 10Z" fill="#8711FD" stroke="#5500AA" stroke-width="2" stroke-linecap="round" stroke-linejoin="round"/>
<path d="M15 25C15 22.2386 12.7614 20 10 20C7.23857 20 5 22.2386 5 25" stroke="#5500AA" stroke-width="2" stroke-linecap="round" stroke-linejoin="round"/>
<path d="M25 25C25 22.2386 22.7614 20 20 20C17.2386 20 15 22.2386 15 25" stroke="#5500AA" stroke-width="2" stroke-linecap="round" stroke-linejoin="round"/>
<path d="M20 15C20 12.2386 17.7614 10 15 10C12.2386 10 10 12.2386 10 15" stroke="#5500AA" stroke-width="2" stroke-linecap="round" stroke-linejoin="round"/>
</svg>
