<svg width="267" height="70" viewBox="0 0 267 70" fill="none" xmlns="http://www.w3.org/2000/svg">
<g clip-path="url(#clip0_2_21)">
<path d="M69.9 0.299805H70.4C71.1 0.399805 71.8 0.699804 72.4 1.0998C73 1.4998 73.7 2.0998 74.4 2.0998C75.3 2.0998 76.2 1.7998 76.9 1.2998C76.1 2.6998 75.1 3.9998 73.6 4.6998C72.9 5.0998 72.1 5.1998 71.3 5.0998C70.6 4.8998 69.9 4.4998 69.3 4.0998C68.8 3.6998 68.2 3.4998 67.6 3.4998C66.8 3.4998 66.1 3.8998 65.5 4.2998V4.1998C65.9 3.2998 66.3 2.4998 66.9 1.6998C67.8 0.999804 68.8 0.399805 69.9 0.299805Z" fill="#065A98"/>
<path d="M156.7 0.299805H157.2C158 0.399805 158.8 0.799805 159.5 1.2998C160.1 1.6998 160.6 2.0998 161.3 2.1998C162.2 2.1998 163.1 1.8998 163.8 1.3998C163.1 2.4998 162.3 3.59981 161.3 4.39981C160.5 4.99981 159.5 5.3998 158.5 5.2998C157.7 5.1998 157 4.6998 156.3 4.1998C155.8 3.7998 155.2 3.5998 154.6 3.5998C153.8 3.5998 153.1 3.99981 152.5 4.39981C152.8 3.59981 153.2 2.8998 153.7 2.1998C154.3 1.1998 155.5 0.399805 156.7 0.299805Z" fill="#065A98"/>
<path d="M79.4999 13.1997C79.4999 16.7997 79.4999 20.3997 79.4999 23.9997C79.6999 24.0997 79.8999 24.1997 80.0999 24.3997C80.7999 24.0997 81.2999 23.5997 81.7999 23.0997C82.7999 21.7997 83.2999 20.0997 83.2999 18.4997C83.3999 17.0997 82.9999 15.6997 82.1999 14.5997C81.4999 13.7997 80.4999 13.2997 79.4999 13.1997ZM79.0999 1.59971C79.7999 0.999707 80.6999 0.699707 81.5999 0.699707C82.6999 0.799707 83.7999 1.39971 84.3999 2.39971C84.9999 3.39971 85.1999 4.49971 85.0999 5.69971C84.8999 7.79971 83.7999 9.79971 82.2999 11.1997C81.7999 11.6997 81.1999 12.0997 80.6999 12.4997C82.1999 12.4997 83.7999 12.7997 85.0999 13.5997C85.9999 14.1997 86.7999 15.0997 87.0999 16.0997C87.4999 17.3997 87.3999 18.6997 87.1999 19.9997C87.0999 20.4997 86.9999 20.8997 86.7999 21.3997C85.7999 23.4997 83.9999 25.2997 81.7999 26.1997C80.1999 26.8997 78.4999 27.3997 76.7999 27.4997C75.9999 27.4997 75.1999 27.3997 74.4999 27.0997C73.7999 26.7997 72.9999 26.4997 72.1999 26.4997C71.3999 26.3997 70.5999 26.4997 69.7999 26.6997C68.9999 26.8997 68.1999 27.1997 67.3999 27.4997C68.5999 25.6997 70.2999 24.1997 72.2999 23.2997C73.7999 22.6997 75.3999 22.5997 76.9999 22.9997C77.7999 23.1997 78.4999 23.4997 79.1999 23.8997C79.1999 18.4997 79.1999 12.9997 79.1999 7.59971C78.9999 7.39971 78.6999 7.09971 78.4999 6.89971C78.7999 6.59971 79.0999 6.29971 79.3999 5.99971C79.6999 6.29971 79.9999 6.59971 80.2999 6.89971C80.0999 7.09971 79.7999 7.39971 79.5999 7.59971C79.5999 9.19971 79.5999 10.8997 79.5999 12.4997C80.6999 11.7997 81.1999 10.5997 81.4999 9.39971C81.7999 7.89971 81.7999 6.19971 81.3999 4.69971C81.1999 3.99971 80.8999 3.29971 80.1999 2.99971C79.5999 2.69971 78.8999 2.89971 78.4999 3.39971C77.9999 3.99971 77.8999 4.69971 77.8999 5.39971C77.8999 9.19971 77.8999 12.9997 77.8999 16.8997C77.7999 18.2997 77.1999 19.5997 76.1999 20.4997C75.2999 21.3997 74.0999 21.8997 72.8999 22.1997C73.0999 21.9997 73.3999 21.6997 73.5999 21.3997C74.0999 20.4997 74.1999 19.4997 74.1999 18.5997C74.1999 15.0997 74.1999 11.5997 74.1999 8.09971C74.0999 6.79971 74.5999 5.39971 75.6999 4.59971C76.7999 3.59971 77.9999 2.59971 79.0999 1.59971Z" fill="#065A98"/>
<path d="M163 4.19985C164.2 3.09985 165.5 1.99985 166.8 1.09985C165.4 2.79985 164.8 4.99985 164.9 7.09985C164.9 11.8999 164.9 16.5999 164.9 21.3999C165 22.4999 164.7 23.5999 164 24.4999C163.1 25.5999 161.9 26.3999 160.6 27.0999C159.3 27.6999 157.8 27.9999 156.4 27.6999C155.7 27.5999 155 27.2999 154.4 26.7999C154 26.4999 153.6 26.0999 153.1 25.9999C152.4 25.7999 151.6 25.8999 151 26.1999C150.5 26.4999 150.1 26.8999 149.7 27.3999C149.7 25.9999 149.9 24.5999 150.6 23.3999C151 22.4999 151.8 21.7999 152.8 21.5999C154.1 21.2999 155.4 21.8999 156.4 22.7999C156.8 23.2999 157.3 23.7999 157.7 24.2999C158 24.6999 158.5 25.0999 159.1 25.1999C159.7 25.2999 160.4 25.0999 160.8 24.5999C161.2 24.1999 161.4 23.4999 161.4 22.8999C161.4 17.7999 161.4 12.6999 161.4 7.69985C161.3 6.79985 161.6 5.89985 162.1 5.19985C162.2 4.79985 162.6 4.49985 163 4.19985Z" fill="#065A98"/>
<path d="M186 14.7998C186 17.4998 186 20.1998 186 22.8998C186 23.3998 186.1 23.7998 186.5 24.1998C186.8 24.4998 187.4 24.5998 187.8 24.5998C188.4 24.4998 189 24.1998 189.4 23.7998C189.4 22.2998 189.4 20.6998 189.4 19.1998C189.3 18.3998 189 17.4998 188.5 16.8998C187.8 16.0998 187.1 15.2998 186.2 14.6998C186.1 14.6998 186.1 14.7998 186 14.7998ZM192.2 4.49976C192.8 4.89976 193.1 5.59976 193.3 6.29976C193.5 6.99976 193.4 7.79976 193.4 8.49976C193.4 13.8998 193.4 19.1998 193.4 24.5998C193.4 25.0998 193.7 25.4998 194 25.7998C193 26.5998 192.1 27.3998 191.1 28.1998C190.2 27.3998 189.4 26.1998 189.4 24.9998C188.1 26.0998 186.8 27.0998 185.5 28.1998C183.9 27.2998 182.6 25.7998 182.2 23.9998C182 23.1998 182.1 22.3998 182 21.5998C182 19.9998 182 18.3998 182 16.7998C182 16.4998 181.8 16.2998 181.6 16.0998C183.5 14.4998 185.4 12.8998 187.3 11.3998C188.1 11.8998 188.9 12.4998 189.5 13.1998C189.5 11.5998 189.5 10.0998 189.5 8.49976C189.5 7.99976 189.2 7.59976 188.8 7.29976C189.9 6.29976 191.1 5.39976 192.2 4.49976Z" fill="#065A98"/>
<path d="M91.9999 5.09985C92.2999 5.59985 92.5999 6.09985 92.9999 6.49985C93.4999 7.09985 93.9999 7.49985 94.5999 7.99985C94.1999 8.39985 93.7999 8.69985 93.3999 9.09985C92.8999 9.59985 92.4999 10.2999 91.9999 10.8999C91.6999 10.3999 91.3999 9.99985 90.9999 9.49985C90.4999 8.89985 89.9999 8.49985 89.3999 7.99985C89.8999 7.49985 90.4999 7.09985 90.9999 6.59985C91.3999 6.09985 91.6999 5.59985 91.9999 5.09985Z" fill="#065A98"/>
<path d="M124 6.79985C124.5 6.29985 124.9 5.69985 125.3 5.09985C125.6 5.59985 125.9 5.99985 126.3 6.49985C126.8 7.09985 127.3 7.49985 127.9 7.99985C127.3 8.49985 126.7 8.99985 126.3 9.59985C126 9.99985 125.6 10.4999 125.4 10.8999C125.1 10.4999 124.8 9.99985 124.4 9.59985C123.9 8.99985 123.3 8.49985 122.8 7.99985C123.2 7.59985 123.6 7.19985 124 6.79985Z" fill="#065A98"/>
<path d="M249.1 6.19985C249.4 5.79985 249.6 5.49985 249.9 5.09985C250.3 5.69985 250.7 6.39985 251.3 6.89985C251.7 7.29985 252.1 7.59985 252.5 7.99985C252 8.49985 251.4 8.89985 251 9.39985C250.6 9.89985 250.3 10.2999 250 10.7999C249.6 10.1999 249.2 9.59985 248.6 8.99985C248.2 8.59985 247.8 8.29985 247.4 7.89985C248 7.39985 248.6 6.89985 249.1 6.19985Z" fill="#065A98"/>
<path d="M157.3 8.99985C158.2 7.79985 159.3 6.79985 160.6 6.09985C160.3 6.99985 160.2 7.79985 160.2 8.69985C160.2 11.3999 160.2 14.1999 160.2 16.8999C160.1 18.1999 159.4 19.4999 158.3 20.3999C157.5 21.0999 156.6 21.4999 155.7 21.7999C155.9 21.5999 156.1 21.3999 156.2 21.0999C156.5 20.4999 156.6 19.7999 156.6 19.1999C156.6 18.1999 156.6 17.1999 156.6 16.1999C156.1 16.1999 155.5 16.2999 155.1 16.6999C154.7 17.0999 154.5 17.6999 154.5 18.1999C154.1 17.4999 153.9 16.6999 153.8 15.8999C153.7 14.9999 153.8 14.0999 154.3 13.2999C154.8 12.4999 155.7 12.0999 156.6 11.9999C156.5 10.8999 156.7 9.79985 157.3 8.99985Z" fill="#065A98"/>
<path d="M70.7999 8.59976C71.5999 7.79976 72.5 7.09976 73.5 6.49976C73.2 7.19976 73.1 7.89976 73.1 8.69976C73.1 12.0998 73.1 15.5998 73.1 18.9998C73.1 20.1998 72.6 21.3998 71.7 22.3998C70.8 23.3998 69.5999 23.9998 68.2999 24.3998C68.4999 24.0998 68.8 23.8998 69 23.5998C69.3 23.0998 69.4 22.3998 69.4 21.7998C69.4 20.0998 69.4 18.3998 69.4 16.6998C68.9 16.6998 68.3 16.8998 68 17.2998C67.6 17.6998 67.5 18.2998 67.4 18.7998C67 17.8998 66.8 16.7998 66.7 15.7998C66.7 14.8998 66.8 13.8998 67.4 13.1998C67.9 12.5998 68.6 12.2998 69.4 12.2998C69.4 11.8998 69.4 11.4998 69.4 11.0998C69.4 10.4998 69.6 9.99976 70 9.49976C70.2 9.19976 70.4999 8.89976 70.7999 8.59976Z" fill="#065A98"/>
<path d="M260.1 18.7998C259.4 19.0998 258.9 19.7998 258.9 20.4998C258.9 21.3998 258.9 22.2998 258.9 23.0998C258.9 23.4998 259 23.9998 259.4 24.2998C259.7 24.5998 260.2 24.5998 260.6 24.4998C261.2 24.3998 261.8 23.9998 262.2 23.4998C262.2 21.5998 262.2 19.6998 262.2 17.6998C261.6 18.0998 260.8 18.4998 260.1 18.7998ZM260.4 11.6998C261.4 11.2998 262.5 10.9998 263.6 10.9998C265.1 11.7998 266.1 13.3998 266.2 15.0998C266.2 15.6998 266.2 16.2998 266.2 16.8998C266.2 19.1998 266.2 21.4998 266.2 23.6998C266.2 23.9998 266.2 24.3998 266.3 24.6998C266.4 24.9998 266.6 25.1998 266.9 25.3998C265.9 26.1998 264.9 27.0998 263.9 27.8998C262.9 27.1998 262.4 25.9998 262.3 24.7998C261 25.7998 259.8 26.8998 258.5 27.8998C257.8 27.5998 257.1 27.1998 256.6 26.6998C255.7 25.8998 255 24.6998 254.8 23.4998C254.6 22.4998 254.8 21.3998 255.4 20.4998C256 19.4998 257 18.8998 258.1 18.3998C259.5 17.8998 260.9 17.4998 262.3 16.9998C262.3 16.1998 262.3 15.3998 262 14.5998C261.7 13.7998 260.9 13.1998 260.1 12.9998C258.5 13.5998 257.2 14.6998 256.1 15.8998C256.1 15.3998 256.1 14.8998 256.1 14.3998C257.3 13.2998 258.8 12.2998 260.4 11.6998Z" fill="#065A98"/>
<path d="M200.6 15.0999C200.6 17.3999 200.6 19.6999 200.6 21.8999C200.6 22.5999 200.8 23.3999 201.3 23.9999C201.8 24.4999 202.5 24.9999 203.2 25.2999C203.4 24.9999 203.5 24.5999 203.5 24.1999C203.5 21.7999 203.5 19.3999 203.5 16.8999C203.5 16.1999 203.1 15.5999 202.6 15.1999C202.1 14.7999 201.5 14.3999 201 13.9999C200.8 14.2999 200.6 14.6999 200.6 15.0999ZM196.4 15.9999C198.4 14.3999 200.3 12.6999 202.3 11.0999C203.4 11.7999 204.5 12.4999 205.6 13.1999C206.7 13.8999 207.5 15.1999 207.6 16.5999C207.6 18.3999 207.6 20.2999 207.6 22.0999C207.6 22.9999 207.3 23.9999 206.5 24.4999C205 25.7999 203.5 26.9999 202 28.1999C200.9 27.4999 199.7 26.6999 198.6 26.0999C197.5 25.3999 196.8 24.0999 196.8 22.6999C196.8 20.7999 196.8 18.7999 196.8 16.8999C196.7 16.4999 196.6 16.1999 196.4 15.9999Z" fill="#065A98"/>
<path d="M89.5 14.8999C91 13.5999 92.5 12.3999 94 11.0999C94 15.4999 94 19.7999 94 24.1999C94 24.6999 94.3 25.1999 94.7 25.4999C93.7 26.2999 92.7 27.1999 91.7 27.9999C90.9 27.3999 90.4 26.4999 90.1 25.5999C89.9 24.7999 89.9 23.9999 89.9 23.1999C89.9 20.8999 89.9 18.4999 89.9 16.1999C90 15.6999 89.8 15.1999 89.5 14.8999Z" fill="#065A98"/>
<path d="M108.5 13.7999C109.6 12.8999 110.7 11.9999 111.8 11.0999C112.8 11.7999 113.2 13.0999 113.2 14.2999C114.5 13.1999 115.8 12.1999 117 11.0999C117.5 11.5999 118 12.0999 118.5 12.5999C119.4 13.4999 120 14.6999 120 15.9999C120 18.2999 120 20.5999 120 22.8999C120 23.5999 120 24.2999 119.8 24.8999C119.4 25.8999 118.6 26.7999 117.7 27.3999C117.2 27.7999 116.6 28.0999 116 28.2999C116 24.3999 116 20.3999 116 16.4999C116 16.0999 116 15.6999 115.8 15.3999C115.6 14.9999 115.2 14.7999 114.7 14.7999C114.1 14.7999 113.6 14.9999 113.1 15.2999C113.1 18.2999 113.1 21.1999 113.1 24.1999C113.1 24.6999 113.4 25.0999 113.8 25.3999C112.8 26.1999 111.7 27.0999 110.7 27.8999C109.9 27.2999 109.3 26.2999 109.1 25.2999C108.9 24.4999 109 23.6999 109 22.8999C109 20.2999 109 17.7999 109 15.1999C109 14.6999 108.8 14.1999 108.5 13.7999Z" fill="#065A98"/>
<path d="M122.8 14.8999C124.3 13.5999 125.8 12.3999 127.3 11.0999C127.3 15.2999 127.3 19.3999 127.3 23.5999C127.3 23.9999 127.3 24.2999 127.4 24.6999C127.5 24.9999 127.8 25.2999 128 25.4999C127 26.2999 126 27.1999 125 27.9999C123.9 27.0999 123.2 25.5999 123.3 24.1999C123.3 21.5999 123.3 18.8999 123.3 16.2999C123.3 15.7999 123.1 15.2999 122.8 14.8999Z" fill="#065A98"/>
<path d="M167.4 13.7999C168.5 12.8999 169.6 11.9999 170.7 11.0999C171.7 11.7999 172.1 13.0999 172.1 14.2999C173.4 13.1999 174.7 12.1999 175.9 11.0999C176.4 11.5999 176.8 11.9999 177.3 12.4999C178.2 13.3999 178.9 14.5999 178.9 15.8999C178.9 18.5999 178.9 21.2999 178.9 23.9999C178.9 25.1999 178.1 26.2999 177.2 27.0999C176.5 27.5999 175.8 28.0999 174.9 28.3999C174.9 24.3999 174.9 20.4999 174.9 16.4999C174.9 16.1999 174.9 15.7999 174.8 15.4999C174.6 15.0999 174.2 14.8999 173.8 14.8999C173.2 14.7999 172.6 15.0999 172.1 15.3999C172.1 18.2999 172.1 21.2999 172.1 24.2999C172.1 24.7999 172.4 25.1999 172.8 25.4999C171.8 26.2999 170.7 27.1999 169.7 27.9999C168.9 27.3999 168.3 26.3999 168.1 25.3999C167.9 24.5999 168 23.7999 168 22.8999C168 20.2999 168 17.6999 168 15.0999C167.9 14.6999 167.7 14.1999 167.4 13.7999Z" fill="#065A98"/>
<path d="M213.3 11.0999C213.6 11.2999 213.9 11.5999 214.1 11.8999C214.6 12.5999 214.7 13.4999 214.7 14.2999C216 13.1999 217.3 12.1999 218.5 11.0999C219 11.5999 219.4 11.9999 219.9 12.4999C220.8 13.3999 221.5 14.6999 221.5 15.9999C221.5 18.5999 221.5 21.2999 221.5 23.8999C221.5 24.9999 220.9 25.9999 220.1 26.6999C219.4 27.3999 218.5 27.8999 217.5 28.2999C217.5 24.2999 217.5 20.3999 217.5 16.3999C217.5 16.0999 217.5 15.6999 217.4 15.3999C217.2 14.9999 216.9 14.7999 216.5 14.7999C215.8 14.6999 215.2 14.9999 214.7 15.2999C214.7 18.2999 214.7 21.1999 214.7 24.1999C214.7 24.6999 215 25.0999 215.4 25.3999C214.4 26.1999 213.3 27.0999 212.3 27.8999C211.2 27.0999 210.6 25.5999 210.6 24.2999C210.6 21.4999 210.6 18.6999 210.6 15.8999C210.6 15.3999 210.7 14.9999 210.5 14.4999C210.4 14.1999 210.3 13.9999 210.1 13.7999C211.1 12.8999 212.2 11.9999 213.3 11.0999Z" fill="#065A98"/>
<path d="M247.4 14.8999C248.9 13.5999 250.4 12.3999 251.9 11.0999C251.9 15.3999 251.9 19.6999 251.9 23.9999C251.9 24.5999 252.2 25.0999 252.7 25.3999C251.7 26.1999 250.7 27.0999 249.7 27.8999C248.6 26.9999 248 25.5999 248 24.1999C248 21.6999 248 19.0999 248 16.5999C248 16.0999 247.9 15.3999 247.4 14.8999Z" fill="#065A98"/>
<path d="M228.4 15.6997C228.4 17.6997 228.4 19.6997 228.4 21.6997C228.8 21.4997 229.1 21.1997 229.4 20.8997C230 20.2997 230.4 19.3997 230.3 18.4997C230.2 17.3997 229.4 16.3997 228.4 15.6997ZM224.2 15.0997C225.8 13.7997 227.5 12.4997 229.1 11.1997C230.1 12.0997 231.1 12.9997 232 13.8997C232.6 14.5997 233.3 15.2997 233.5 16.2997C233.7 16.9997 233.5 17.7997 233.2 18.4997C232.9 19.1997 232.3 19.6997 231.7 20.1997C230.7 21.0997 229.6 21.9997 228.5 22.6997C228.6 23.1997 228.8 23.6997 229.2 24.0997C229.6 24.4997 230.3 24.5997 230.9 24.5997C231.8 24.4997 232.8 24.2997 233.6 23.9997C231.9 25.3997 230.2 26.7997 228.5 28.0997C227.6 27.4997 226.8 26.8997 226.1 26.1997C225.8 25.8997 225.5 25.5997 225.3 25.1997C224.8 24.3997 224.5 23.3997 224.5 22.4997C224.5 20.2997 224.5 18.0997 224.5 15.8997C224.5 15.5997 224.4 15.3997 224.2 15.0997Z" fill="#065A98"/>
<path d="M98.2001 14.6998C99.5001 13.5998 100.8 12.4998 102 11.4998C102.4 12.0998 103 12.5998 103.7 12.7998C104.7 13.0998 105.8 12.8998 106.6 12.4998C106.1 12.9998 105.6 13.4998 105.2 13.8998C104.8 14.2998 104.4 14.7998 103.9 15.0998C103.3 15.4998 102.6 15.5998 102 15.4998C101.3 15.3998 100.8 14.8998 100.6 14.2998C100.2 14.5998 100 15.0998 100.1 15.5998C100.2 16.1998 100.7 16.6998 101.2 16.9998C102 17.4998 102.9 17.9998 103.7 18.3998C104.7 18.7998 105.6 19.4998 106.2 20.4998C106.6 21.1998 106.8 22.0998 106.6 22.9998C106.3 24.1998 105.6 25.2998 104.8 26.0998C103.8 27.1998 102.3 27.9998 100.8 28.0998C100 28.1998 99.1001 27.9998 98.4001 27.5998C97.5001 26.9998 97.0001 26.0998 96.6001 25.0998C97.8001 24.0998 99.0001 23.0998 100.2 22.0998C100.2 22.9998 100.4 23.8998 100.9 24.4998C101.4 25.0998 102.3 25.3998 103.1 25.0998C103.6 24.8998 103.9 24.2998 103.8 23.7998C103.7 23.3998 103.4 22.9998 103.1 22.7998C102.5 22.3998 101.8 21.9998 101.1 21.5998C100.4 21.2998 99.7001 20.9998 99.1001 20.4998C98.2001 19.8998 97.6001 18.9998 97.3001 17.9998C97.0001 16.6998 97.3001 15.4998 98.2001 14.6998Z" fill="#065A98"/>
<path d="M131.7 14.4998C132.9 13.4998 134.1 12.4998 135.3 11.4998C135.7 12.0998 136.3 12.5998 137 12.7998C138 13.0998 139.1 12.8998 140 12.4998C139.3 13.1998 138.7 13.7998 138 14.4998C137.5 14.9998 136.8 15.3998 136.1 15.4998C135.6 15.4998 135 15.3998 134.5 15.0998C134.2 14.8998 134 14.5998 133.9 14.1998C133.6 14.4998 133.3 14.7998 133.4 15.1998C133.4 15.7998 133.7 16.2998 134.1 16.5998C135 17.2998 136 17.7998 137 18.1998C138 18.6998 139 19.3998 139.5 20.3998C139.9 21.0998 140 21.8998 139.9 22.5998C139.7 23.6998 139.1 24.5998 138.4 25.3998C137.5 26.4998 136.2 27.2998 134.8 27.6998C133.9 27.8998 132.9 27.8998 132.1 27.4998C131.1 26.9998 130.3 25.8998 130 24.7998C131.2 23.7998 132.4 22.7998 133.6 21.7998C133.6 22.5998 133.7 23.3998 134.2 23.9998C134.6 24.5998 135.2 24.8998 135.9 24.9998C136.2 24.9998 136.6 24.8998 136.8 24.6998C137.2 24.3998 137.3 23.8998 137.2 23.3998C137.1 22.9998 136.8 22.6998 136.5 22.3998C135.9 21.9998 135.2 21.5998 134.5 21.2998C133.9 20.9998 133.2 20.6998 132.6 20.2998C131.7 19.6998 131 18.7998 130.7 17.6998C130.3 16.5998 130.7 15.1998 131.7 14.4998Z" fill="#065A98"/>
<path d="M237.2 14.4999C238.4 13.4999 239.6 12.3999 240.9 11.3999C241.2 11.9999 241.8 12.4999 242.4 12.6999C243.4 12.9999 244.6 12.8999 245.5 12.3999C244.8 13.0999 244.1 13.7999 243.4 14.4999C242.7 15.0999 241.8 15.5999 240.9 15.3999C240.2 15.2999 239.6 14.7999 239.4 14.0999C239.1 14.2999 238.9 14.5999 238.9 14.9999C238.8 15.5999 239.1 16.1999 239.6 16.4999C240.4 17.0999 241.3 17.5999 242.3 17.9999C243.1 18.2999 243.9 18.7999 244.5 19.3999C245.2 20.1999 245.7 21.2999 245.5 22.3999C245.3 23.3999 244.8 24.2999 244.2 25.0999C243.5 25.9999 242.5 26.7999 241.4 27.2999C240.4 27.6999 239.4 27.9999 238.3 27.6999C236.9 27.3999 235.9 26.0999 235.5 24.7999C236.7 23.7999 237.9 22.7999 239.1 21.7999C239.1 22.5999 239.3 23.3999 239.7 24.0999C240.2 24.7999 241.2 25.1999 242 24.8999C242.5 24.6999 242.8 23.9999 242.6 23.4999C242.5 23.0999 242.2 22.6999 241.8 22.4999C241 21.9999 240.1 21.4999 239.3 21.0999C238.3 20.5999 237.3 19.9999 236.7 18.9999C236.1 18.0999 235.8 16.9999 236.1 15.9999C236.3 15.4999 236.6 14.8999 237.2 14.4999Z" fill="#065A98"/>
<path d="M71.2756 48.6249C71.2756 50.9349 71.7706 52.6299 72.7606 53.7099C73.7806 54.7599 75.0856 55.2849 76.6756 55.2849C77.5456 55.2849 78.3556 55.1649 79.1056 54.9249C79.8856 54.6849 80.5156 54.3999 80.9956 54.0699V41.8749C80.6056 41.7849 80.1256 41.7099 79.5556 41.6499C78.9856 41.5599 78.2656 41.5149 77.3956 41.5149C75.4156 41.5149 73.9006 42.1749 72.8506 43.4949C71.8006 44.7849 71.2756 46.4949 71.2756 48.6249ZM86.4406 58.6149C86.4406 62.3649 85.4806 65.1099 83.5606 66.8499C81.6706 68.5899 78.7606 69.4599 74.8306 69.4599C73.3906 69.4599 71.9806 69.3399 70.6006 69.0999C69.2506 68.8599 68.0206 68.5449 66.9106 68.1549L67.9006 63.5199C68.8306 63.9099 69.8806 64.2249 71.0506 64.4649C72.2506 64.7049 73.5406 64.8249 74.9206 64.8249C77.1106 64.8249 78.6706 64.3749 79.6006 63.4749C80.5306 62.5749 80.9956 61.2399 80.9956 59.4699V58.5699C80.4556 58.8399 79.7356 59.1099 78.8356 59.3799C77.9656 59.6499 76.9606 59.7849 75.8206 59.7849C74.3206 59.7849 72.9406 59.5449 71.6806 59.0649C70.4506 58.5849 69.3856 57.8799 68.4856 56.9499C67.6156 56.0199 66.9256 54.8649 66.4156 53.4849C65.9356 52.0749 65.6956 50.4549 65.6956 48.6249C65.6956 46.9149 65.9506 45.3399 66.4606 43.8999C67.0006 42.4599 67.7656 41.2299 68.7556 40.2099C69.7756 39.1899 71.0056 38.3949 72.4456 37.8249C73.8856 37.2549 75.5206 36.9699 77.3506 36.9699C79.1206 36.9699 80.8006 37.1049 82.3906 37.3749C83.9806 37.6449 85.3306 37.9299 86.4406 38.2299V58.6149ZM104.528 42.3699C104.078 42.2199 103.448 42.0699 102.638 41.9199C101.858 41.7399 100.943 41.6499 99.8928 41.6499C99.2928 41.6499 98.6478 41.7099 97.9578 41.8299C97.2978 41.9499 96.8328 42.0549 96.5628 42.1449V60.9999H91.1178V38.5899C92.1678 38.1999 93.4728 37.8399 95.0328 37.5099C96.6228 37.1499 98.3778 36.9699 100.298 36.9699C100.658 36.9699 101.078 36.9999 101.558 37.0599C102.038 37.0899 102.518 37.1499 102.998 37.2399C103.478 37.2999 103.943 37.3899 104.393 37.5099C104.843 37.5999 105.203 37.6899 105.473 37.7799L104.528 42.3699ZM128.302 49.2099C128.302 51.0699 128.032 52.7649 127.492 54.2949C126.952 55.8249 126.187 57.1299 125.197 58.2099C124.207 59.2899 123.007 60.1299 121.597 60.7299C120.217 61.3299 118.687 61.6299 117.007 61.6299C115.327 61.6299 113.797 61.3299 112.417 60.7299C111.037 60.1299 109.852 59.2899 108.862 58.2099C107.872 57.1299 107.092 55.8249 106.522 54.2949C105.982 52.7649 105.712 51.0699 105.712 49.2099C105.712 47.3499 105.982 45.6699 106.522 44.1699C107.092 42.6399 107.872 41.3349 108.862 40.2549C109.882 39.1749 111.082 38.3499 112.462 37.7799C113.842 37.1799 115.357 36.8799 117.007 36.8799C118.657 36.8799 120.172 37.1799 121.552 37.7799C122.962 38.3499 124.162 39.1749 125.152 40.2549C126.142 41.3349 126.907 42.6399 127.447 44.1699C128.017 45.6699 128.302 47.3499 128.302 49.2099ZM122.722 49.2099C122.722 46.8699 122.212 45.0249 121.192 43.6749C120.202 42.2949 118.807 41.6049 117.007 41.6049C115.207 41.6049 113.797 42.2949 112.777 43.6749C111.787 45.0249 111.292 46.8699 111.292 49.2099C111.292 51.5799 111.787 53.4549 112.777 54.8349C113.797 56.2149 115.207 56.9049 117.007 56.9049C118.807 56.9049 120.202 56.2149 121.192 54.8349C122.212 53.4549 122.722 51.5799 122.722 49.2099ZM150.967 60.2799C149.917 60.5499 148.552 60.8199 146.872 61.0899C145.192 61.3899 143.347 61.5399 141.337 61.5399C139.447 61.5399 137.857 61.2699 136.567 60.7299C135.307 60.1899 134.287 59.4399 133.507 58.4799C132.757 57.5199 132.217 56.3799 131.887 55.0599C131.557 53.7099 131.392 52.2399 131.392 50.6499V37.4649H136.837V49.7949C136.837 52.3149 137.197 54.1149 137.917 55.1949C138.667 56.2749 139.957 56.8149 141.787 56.8149C142.447 56.8149 143.137 56.7849 143.857 56.7249C144.607 56.6649 145.162 56.5899 145.522 56.4999V37.4649H150.967V60.2799ZM171.262 49.3449C171.262 46.9149 170.707 45.0249 169.597 43.6749C168.517 42.3249 166.762 41.6499 164.332 41.6499C163.822 41.6499 163.282 41.6799 162.712 41.7399C162.172 41.7699 161.632 41.8599 161.092 42.0099V55.4649C161.572 55.7949 162.202 56.1099 162.982 56.4099C163.792 56.6799 164.647 56.8149 165.547 56.8149C167.527 56.8149 168.967 56.1399 169.867 54.7899C170.797 53.4399 171.262 51.6249 171.262 49.3449ZM176.842 49.2549C176.842 51.0549 176.602 52.7049 176.122 54.2049C175.672 55.7049 175.012 56.9949 174.142 58.0749C173.272 59.1549 172.177 59.9949 170.857 60.5949C169.567 61.1949 168.097 61.4949 166.447 61.4949C165.337 61.4949 164.317 61.3599 163.387 61.0899C162.457 60.8199 161.692 60.5199 161.092 60.1899V69.3249H155.647V38.2299C156.757 37.9299 158.122 37.6449 159.742 37.3749C161.362 37.1049 163.072 36.9699 164.872 36.9699C166.732 36.9699 168.397 37.2549 169.867 37.8249C171.337 38.3949 172.582 39.2199 173.602 40.2999C174.652 41.3499 175.447 42.6399 175.987 44.1699C176.557 45.6699 176.842 47.3649 176.842 49.2549Z" fill="#065A98"/>
<path d="M10.9003 31.2998C10.9003 31.2998 10.6003 31.2998 10.1003 31.2998C8.40029 31.2998 2.80029 31.8998 2.80029 39.9998C2.80029 40.0998 3.00029 43.6998 4.20029 46.8998L4.70029 48.0998L4.90029 46.7998C4.90029 46.5998 5.70029 42.4998 9.60029 42.4998C9.90029 42.4998 10.3003 42.4998 10.7003 42.5998L11.1003 42.6998L11.3003 31.3998L10.9003 31.2998Z" fill="#065A98"/>
<path d="M37.8999 16.9998L35.5999 19.1998L33.3999 16.9998L35.5999 14.7998L37.8999 16.9998Z" fill="#065A98"/>
<path d="M35 63.7999V17.8999H36.1V63.7999H35Z" fill="#065A98"/>
<path d="M19.1999 21.9C19.1999 21.9 19.1999 21.7 19.1999 21.3V21.2C19.1999 20.1 19.4999 17.8 20.2999 16C15.7999 18.9 12.2999 22.6 12.1999 22.6C9.5999 25.3 9.6999 28.2 9.6999 28.3V55.5C9.6999 59.6 8.1999 61.2 8.0999 61.2L6.8999 62.4L8.4999 61.8C19.5999 57.7 19.1999 48.5 19.1999 48.4V21.9Z" fill="#065A98"/>
<path d="M39.3002 31.6H39.0002C50.8002 23.8 50.7002 13.2 50.7002 13.1C50.7002 1.1 41.4002 1 41.3002 1C37.1002 1 34.6002 3.5 34.5002 3.6L24.6002 12.3C21.4002 16 21.8002 20.1 21.8002 20.2V48C21.8002 53.7 19.6002 55.9 19.6002 55.9L18.4002 57L19.9002 56.5C31.7002 52.5 31.4002 42.6 31.4002 42.5V13.4C31.4002 10.6 32.2002 8.5 33.6002 7.4C34.7002 6.6 35.8002 6.5 35.9002 6.5C37.0002 6.5 38.0002 6.9 38.8002 7.7C41.6002 10.5 41.6002 17.2 41.6002 17.2C41.6002 29.7 35.6002 31.7 35.6002 31.7L35.3002 31.8V33.3H35.6002C45.9002 34.1 45.9002 45.5 45.9002 46C45.9002 58.4 38.7002 62 37.6002 62.5C33.2002 59.6 28.8002 58.1 24.5002 58.1C14.2002 58.1 7.2002 66.7 4.7002 70.3C7.7002 68.9 10.5002 68.2 12.5002 67.9C13.2002 67.8 13.9002 67.7 14.7002 67.6C15.3002 67.6 15.6002 67.5 15.6002 67.5C18.0002 67.5 20.5002 68.1 23.1002 69.2H23.2002C24.6002 69.9 26.4002 70.2 28.5002 70.2C34.5002 70.2 41.1002 67.3 41.3002 67.2C52.2002 62.8 55.4002 53.3 55.4002 53.2C55.5002 53 55.5002 52.8 55.5002 52.8C56.5002 49.3 56.5002 45.9 56.5002 45.7C56.4002 32.6 43.3002 31.6 39.3002 31.6Z" fill="#065A98"/>
<path d="M24.5 4.8C24.2 4.9 23.8 4.9 23.5 4.9C23.3 4.9 23.2 4.9 23.2 4.9H23.1C22.7 4.9 21.3 4.8 18.9 3.1C18.7 3 14.9 0 11.8 0C11.8 0 11.7 0 11.6 0C10.6 0 7 0.3 3.9 3.7C3.8 3.8 1.5 6.7 0.1 10.3L0 10.5C3.2 8.2 5.7 8.4 5.7 8.4C5.7 8.4 7.8 8.4 10 10.2C10.1 10.3 13.3 12.9 16.3 12.9C16.3 12.9 16.4 12.9 16.7 12.9C18.3 12.9 24 12.2 29.3 2.9C27.6 4.1 25.7 4.6 24.5 4.8Z" fill="#065A98"/>
</g>
<defs>
<clipPath id="clip0_2_21">
<rect width="267" height="70" fill="white"/>
</clipPath>
</defs>
</svg>
