<svg width="18" height="18" viewBox="0 0 18 18" fill="none" xmlns="http://www.w3.org/2000/svg">
<path d="M14.2492 14.9999H3.74925C3.55033 14.9999 3.35957 15.0789 3.21892 15.2196C3.07826 15.3602 2.99925 15.551 2.99925 15.7499C2.99925 15.9488 3.07826 16.1396 3.21892 16.2802C3.35957 16.4209 3.55033 16.4999 3.74925 16.4999H14.2492C14.4482 16.4999 14.6389 16.4209 14.7796 16.2802C14.9202 16.1396 14.9992 15.9488 14.9992 15.7499C14.9992 15.551 14.9202 15.3602 14.7796 15.2196C14.6389 15.0789 14.4482 14.9999 14.2492 14.9999ZM3.74925 13.4999H3.81675L6.94425 13.2149C7.28684 13.1808 7.60727 13.0298 7.85175 12.7874L14.6017 6.03739C14.8637 5.76062 15.0053 5.39127 14.9955 5.0103C14.9856 4.62932 14.8252 4.26777 14.5492 4.00489L12.4942 1.94989C12.226 1.69797 11.8746 1.55341 11.5067 1.54373C11.1389 1.53405 10.7803 1.65992 10.4992 1.89739L3.74925 8.64739C3.50682 8.89187 3.35587 9.2123 3.32175 9.55489L2.99925 12.6824C2.98914 12.7922 3.0034 12.903 3.04099 13.0067C3.07859 13.1104 3.1386 13.2045 3.21675 13.2824C3.28683 13.3519 3.36994 13.4069 3.46132 13.4442C3.55269 13.4815 3.65054 13.5005 3.74925 13.4999ZM11.4517 2.99989L13.4992 5.04739L11.9992 6.50989L9.98925 4.49989L11.4517 2.99989Z" fill="white"/>
</svg>
