<svg width="18" height="18" viewBox="0 0 18 18" fill="none" xmlns="http://www.w3.org/2000/svg">
<path d="M13.5 5.25H4.5V2.25H13.5V5.25ZM13.5 9.375C13.7125 9.375 13.8905 9.303 14.034 9.159C14.178 9.0155 14.25 8.8375 14.25 8.625C14.25 8.4125 14.178 8.23425 14.034 8.09025C13.8905 7.94675 13.7125 7.875 13.5 7.875C13.2875 7.875 13.1095 7.94675 12.966 8.09025C12.822 8.23425 12.75 8.4125 12.75 8.625C12.75 8.8375 12.822 9.0155 12.966 9.159C13.1095 9.303 13.2875 9.375 13.5 9.375ZM12 14.25V11.25H6V14.25H12ZM13.5 15.75H4.5V12.75H1.5V8.25C1.5 7.6125 1.71875 7.07825 2.15625 6.64725C2.59375 6.21575 3.125 6 3.75 6H14.25C14.8875 6 15.422 6.21575 15.8535 6.64725C16.2845 7.07825 16.5 7.6125 16.5 8.25V12.75H13.5V15.75Z" fill="white"/>
</svg>
