<svg width="30" height="30" viewBox="0 0 30 30" fill="none" xmlns="http://www.w3.org/2000/svg">
<path fill-rule="evenodd" clip-rule="evenodd" d="M9.27777 19.4444C10.0448 19.4444 10.6667 18.8226 10.6667 18.0555C10.6667 17.2885 10.0448 16.6667 9.27777 16.6667C8.51072 16.6667 7.88889 17.2885 7.88889 18.0555C7.88889 18.8226 8.51072 19.4444 9.27777 19.4444Z" fill="#5500AA"/>
<path fill-rule="evenodd" clip-rule="evenodd" d="M20.9444 19.4444C21.7115 19.4444 22.3333 18.8226 22.3333 18.0555C22.3333 17.2885 21.7115 16.6667 20.9444 16.6667C20.1774 16.6667 19.5555 17.2885 19.5555 18.0555C19.5555 18.8226 20.1774 19.4444 20.9444 19.4444Z" fill="#5500AA"/>
<path d="M5.66667 22.2222C4.74619 22.2222 4 21.4761 4 20.5556V15.3943C4 14.1313 4.71381 12.9767 5.84367 12.4123L6.22252 12.2231L7.50583 6.71774C7.74033 5.71176 8.63706 5 9.67 5H20.6079C21.6486 5 22.5499 5.72221 22.7767 6.73787L24.0017 12.2231L24.3797 12.412C25.5089 12.9767 26.2222 14.1308 26.2222 15.3934V20.5556C26.2222 21.4761 25.4761 22.2222 24.5556 22.2222H23.4462V22.7778C23.4462 24.0051 22.4504 25 21.2231 25C19.9958 25 19 24.0051 19 22.7778V22.2222H11.2222V22.7779C11.2222 24.0052 10.2274 25 9.00017 25C7.77294 25 6.77807 24.0052 6.77807 22.7779V22.2222H5.66667Z" fill="#8711FD" stroke="#5500AA" stroke-width="2" stroke-linejoin="round"/>
<path d="M9.55554 13.8889H20.6667L19.7489 9.75894C19.6359 9.25061 19.185 8.88889 18.6643 8.88889H11.5579C11.0372 8.88889 10.5863 9.25061 10.4733 9.75894L9.55554 13.8889Z" fill="#8711FD" stroke="white" stroke-width="2" stroke-linejoin="round"/>
</svg>
