<svg width="153" height="40" viewBox="0 0 153 40" fill="none" xmlns="http://www.w3.org/2000/svg">
<g clip-path="url(#clip0_1_476)">
<path d="M39.9429 0.171326H40.2286C40.6286 0.228469 41.0286 0.399897 41.3714 0.628466C41.7143 0.857037 42.1143 1.19989 42.5143 1.19989C43.0286 1.19989 43.5429 1.02847 43.9429 0.742751C43.4857 1.54275 42.9143 2.28561 42.0572 2.68561C41.6572 2.91418 41.2 2.97132 40.7429 2.91418C40.3429 2.79989 39.9429 2.57132 39.6 2.34275C39.3143 2.11418 38.9714 1.99989 38.6286 1.99989C38.1714 1.99989 37.7714 2.22847 37.4286 2.45704V2.39989C37.6572 1.88561 37.8857 1.42847 38.2286 0.971323C38.7429 0.571325 39.3143 0.228469 39.9429 0.171326Z" fill="#065A98"/>
<path d="M89.5428 0.171326H89.8285C90.2857 0.228469 90.7428 0.45704 91.1428 0.742751C91.4857 0.971323 91.7714 1.19989 92.1714 1.25704C92.6857 1.25704 93.2 1.08561 93.6 0.799894C93.2 1.42847 92.7428 2.05704 92.1714 2.51419C91.7143 2.85704 91.1428 3.08561 90.5714 3.02847C90.1143 2.97132 89.7143 2.68561 89.3143 2.39989C89.0285 2.17132 88.6857 2.05704 88.3428 2.05704C87.8857 2.05704 87.4857 2.28561 87.1428 2.51419C87.3143 2.05704 87.5428 1.65704 87.8285 1.25704C88.1714 0.685609 88.8571 0.228469 89.5428 0.171326Z" fill="#065A98"/>
<path d="M45.4285 7.54269C45.4285 9.59984 45.4285 11.657 45.4285 13.7141C45.5428 13.7713 45.6571 13.8284 45.7714 13.9427C46.1714 13.7713 46.4571 13.4856 46.7428 13.1998C47.3142 12.457 47.5999 11.4856 47.5999 10.5713C47.6571 9.77127 47.4285 8.97127 46.9714 8.34269C46.5714 7.88555 45.9999 7.59984 45.4285 7.54269ZM45.1999 0.914129C45.5999 0.57127 46.1142 0.399841 46.6285 0.399841C47.2571 0.456984 47.8857 0.799843 48.2285 1.37127C48.5714 1.9427 48.6856 2.57127 48.6285 3.25699C48.5142 4.45699 47.8856 5.59984 47.0285 6.39984C46.7428 6.68555 46.3999 6.91412 46.1142 7.14269C46.9714 7.14269 47.8856 7.31412 48.6285 7.77127C49.1428 8.11412 49.5999 8.62841 49.7714 9.19984C49.9999 9.94269 49.9428 10.6856 49.8285 11.4284C49.7714 11.7141 49.7142 11.9427 49.5999 12.2284C49.0285 13.4284 47.9999 14.457 46.7428 14.9713C45.8285 15.3713 44.8571 15.657 43.8856 15.7141C43.4285 15.7141 42.9714 15.657 42.5714 15.4856C42.1714 15.3141 41.7142 15.1427 41.2571 15.1427C40.7999 15.0856 40.3428 15.1427 39.8856 15.257C39.4285 15.3713 38.9714 15.5427 38.5142 15.7141C39.1999 14.6856 40.1714 13.8284 41.3142 13.3141C42.1714 12.9713 43.0856 12.9141 43.9999 13.1427C44.4571 13.257 44.8571 13.4284 45.2571 13.657C45.2571 10.5713 45.2571 7.42841 45.2571 4.3427C45.1428 4.22841 44.9714 4.05699 44.8571 3.9427C45.0285 3.77127 45.1999 3.59984 45.3714 3.42841C45.5428 3.59984 45.7142 3.77127 45.8856 3.9427C45.7714 4.05699 45.5999 4.22841 45.4856 4.3427C45.4856 5.25699 45.4856 6.22841 45.4856 7.14269C46.1142 6.74269 46.3999 6.05698 46.5714 5.37127C46.7428 4.51413 46.7428 3.5427 46.5142 2.68556C46.3999 2.28556 46.2285 1.88556 45.8285 1.71413C45.4856 1.5427 45.0856 1.65699 44.8571 1.9427C44.5714 2.28556 44.5142 2.68556 44.5142 3.08556C44.5142 5.25699 44.5142 7.42841 44.5142 9.65698C44.4571 10.457 44.1142 11.1998 43.5428 11.7141C43.0285 12.2284 42.3428 12.5141 41.6571 12.6856C41.7714 12.5713 41.9428 12.3998 42.0571 12.2284C42.3428 11.7141 42.3999 11.1427 42.3999 10.6284C42.3999 8.62841 42.3999 6.62841 42.3999 4.62841C42.3428 3.88556 42.6285 3.08556 43.2571 2.62841C43.8856 2.05699 44.5714 1.48556 45.1999 0.914129Z" fill="#065A98"/>
<path d="M93.1428 2.39991C93.8286 1.77134 94.5714 1.14276 95.3143 0.628479C94.5143 1.59991 94.1714 2.85705 94.2286 4.05705C94.2286 6.79994 94.2286 9.48565 94.2286 12.2285C94.2857 12.8571 94.1143 13.4857 93.7143 13.9999C93.2 14.6285 92.5143 15.0857 91.7714 15.4857C91.0286 15.8285 90.1714 15.9999 89.3714 15.8285C88.9714 15.7714 88.5714 15.5999 88.2286 15.3142C88 15.1428 87.7714 14.9142 87.4857 14.8571C87.0857 14.7428 86.6286 14.7999 86.2857 14.9714C86 15.1428 85.7714 15.3714 85.5428 15.6571C85.5428 14.8571 85.6571 14.0571 86.0571 13.3714C86.2857 12.8571 86.7429 12.4571 87.3143 12.3428C88.0571 12.1714 88.8 12.5142 89.3714 13.0285C89.6 13.3142 89.8857 13.5999 90.1143 13.8857C90.2857 14.1142 90.5714 14.3428 90.9143 14.3999C91.2571 14.4571 91.6571 14.3428 91.8857 14.0571C92.1143 13.8285 92.2286 13.4285 92.2286 13.0857C92.2286 10.1714 92.2286 7.25708 92.2286 4.39991C92.1714 3.88562 92.3429 3.37134 92.6286 2.97134C92.6857 2.74276 92.9143 2.57134 93.1428 2.39991Z" fill="#065A98"/>
<path d="M106.286 8.45703C106.286 9.99988 106.286 11.5427 106.286 13.0856C106.286 13.3713 106.343 13.5999 106.571 13.8285C106.743 13.9999 107.086 14.057 107.314 14.057C107.657 13.9999 108 13.8285 108.229 13.5999C108.229 12.7427 108.229 11.8285 108.229 10.9713C108.171 10.5142 108 9.99988 107.714 9.65703C107.314 9.19988 106.914 8.74274 106.4 8.39988C106.343 8.39988 106.343 8.45703 106.286 8.45703ZM109.829 2.57129C110.171 2.79986 110.343 3.19986 110.457 3.59986C110.571 3.99986 110.514 4.457 110.514 4.857C110.514 7.94274 110.514 10.9713 110.514 14.057C110.514 14.3427 110.686 14.5713 110.857 14.7427C110.286 15.1999 109.771 15.657 109.2 16.1142C108.686 15.657 108.229 14.9713 108.229 14.2856C107.486 14.9142 106.743 15.4856 106 16.1142C105.086 15.5999 104.343 14.7427 104.114 13.7142C104 13.257 104.057 12.7999 104 12.3427C104 11.4285 104 10.5142 104 9.59988C104 9.42846 103.886 9.31417 103.771 9.19988C104.857 8.2856 105.943 7.37131 107.029 6.51417C107.486 6.79988 107.943 7.14274 108.286 7.54274C108.286 6.62845 108.286 5.77131 108.286 4.857C108.286 4.57129 108.114 4.34272 107.886 4.17129C108.514 3.59986 109.2 3.08557 109.829 2.57129Z" fill="#065A98"/>
<path d="M52.5713 2.91418C52.7428 3.1999 52.9142 3.48561 53.1428 3.71418C53.4285 4.05704 53.7142 4.28561 54.0571 4.57133C53.8285 4.7999 53.5999 4.97133 53.3713 5.1999C53.0856 5.48561 52.8571 5.88564 52.5713 6.2285C52.3999 5.94278 52.2285 5.71418 51.9999 5.42847C51.7142 5.08561 51.4285 4.85704 51.0856 4.57133C51.3713 4.28561 51.7142 4.05704 51.9999 3.77133C52.2285 3.48561 52.3999 3.1999 52.5713 2.91418Z" fill="#065A98"/>
<path d="M70.8572 3.88561C71.1429 3.5999 71.3714 3.25704 71.6 2.91418C71.7714 3.1999 71.9429 3.42847 72.1714 3.71418C72.4572 4.05704 72.7429 4.28561 73.0857 4.57133C72.7429 4.85704 72.4 5.14276 72.1714 5.48561C72 5.71418 71.7714 5.99993 71.6572 6.2285C71.4857 5.99993 71.3143 5.71418 71.0857 5.48561C70.8 5.14276 70.4572 4.85704 70.1714 4.57133C70.4 4.34276 70.6286 4.11418 70.8572 3.88561Z" fill="#065A98"/>
<path d="M142.343 3.54276C142.514 3.31418 142.629 3.14276 142.8 2.91418C143.029 3.25704 143.257 3.65704 143.6 3.94276C143.829 4.17133 144.057 4.34276 144.286 4.57133C144 4.85704 143.657 5.08561 143.429 5.37133C143.2 5.65704 143.029 5.88564 142.857 6.17136C142.629 5.8285 142.4 5.48561 142.057 5.14276C141.829 4.91418 141.6 4.74276 141.371 4.51418C141.714 4.22847 142.057 3.94276 142.343 3.54276Z" fill="#065A98"/>
<path d="M89.8857 5.1428C90.4 4.45709 91.0286 3.88566 91.7714 3.48566C91.6 3.99994 91.5428 4.45709 91.5428 4.97137C91.5428 6.51426 91.5428 8.11426 91.5428 9.65711C91.4857 10.4 91.0857 11.1428 90.4571 11.6571C90 12.0571 89.4857 12.2857 88.9714 12.4571C89.0857 12.3428 89.2 12.2285 89.2571 12.0571C89.4286 11.7143 89.4857 11.3143 89.4857 10.9714C89.4857 10.4 89.4857 9.82854 89.4857 9.25711C89.2 9.25711 88.8571 9.31426 88.6286 9.54283C88.4 9.7714 88.2857 10.1143 88.2857 10.4C88.0571 9.99997 87.9428 9.54283 87.8857 9.08569C87.8286 8.5714 87.8857 8.05711 88.1714 7.59997C88.4571 7.14283 88.9714 6.91426 89.4857 6.85711C89.4286 6.22854 89.5428 5.59994 89.8857 5.1428Z" fill="#065A98"/>
<path d="M40.4571 4.91417C40.9142 4.45703 41.4285 4.05703 42 3.71417C41.8285 4.11417 41.7714 4.51417 41.7714 4.97132C41.7714 6.9142 41.7714 8.91419 41.7714 10.8571C41.7714 11.5428 41.4857 12.2285 40.9714 12.7999C40.4571 13.3713 39.7713 13.7142 39.0285 13.9428C39.1428 13.7713 39.3143 13.6571 39.4285 13.4856C39.6 13.1999 39.6571 12.7999 39.6571 12.4571C39.6571 11.4856 39.6571 10.5142 39.6571 9.54277C39.3714 9.54277 39.0285 9.65705 38.8571 9.88562C38.6285 10.1142 38.5714 10.4571 38.5143 10.7428C38.2857 10.2285 38.1714 9.59991 38.1143 9.02848C38.1143 8.51419 38.1714 7.94277 38.5143 7.54277C38.8 7.19991 39.2 7.02848 39.6571 7.02848C39.6571 6.79991 39.6571 6.57134 39.6571 6.34277C39.6571 5.99991 39.7714 5.71417 40 5.42846C40.1143 5.25703 40.2856 5.0856 40.4571 4.91417Z" fill="#065A98"/>
<path d="M148.629 10.7427C148.229 10.9142 147.943 11.3142 147.943 11.7142C147.943 12.2284 147.943 12.7427 147.943 13.1999C147.943 13.4284 148 13.7142 148.229 13.8856C148.4 14.057 148.686 14.057 148.914 13.9999C149.257 13.9427 149.6 13.7142 149.829 13.4284C149.829 12.3427 149.829 11.257 149.829 10.1142C149.486 10.3427 149.029 10.5713 148.629 10.7427ZM148.8 6.68558C149.371 6.45701 150 6.28558 150.629 6.28558C151.486 6.74273 152.057 7.65701 152.114 8.62844C152.114 8.9713 152.114 9.31415 152.114 9.65701C152.114 10.9713 152.114 12.2856 152.114 13.5427C152.114 13.7142 152.114 13.9427 152.171 14.1142C152.229 14.2856 152.343 14.3999 152.514 14.5142C151.943 14.9713 151.371 15.4856 150.8 15.9427C150.229 15.5427 149.943 14.857 149.886 14.1713C149.143 14.7427 148.457 15.3713 147.714 15.9427C147.314 15.7713 146.914 15.5427 146.629 15.257C146.114 14.7999 145.714 14.1142 145.6 13.4284C145.486 12.857 145.6 12.2284 145.943 11.7142C146.286 11.1427 146.857 10.7999 147.486 10.5142C148.286 10.2284 149.086 9.99987 149.886 9.71416C149.886 9.25701 149.886 8.79987 149.714 8.34273C149.543 7.88558 149.086 7.54273 148.629 7.42844C147.714 7.7713 146.971 8.39987 146.343 9.08558C146.343 8.79987 146.343 8.51416 146.343 8.22844C147.029 7.59987 147.886 7.02844 148.8 6.68558Z" fill="#065A98"/>
<path d="M114.629 8.62849C114.629 9.94277 114.629 11.2571 114.629 12.5142C114.629 12.9142 114.743 13.3713 115.029 13.7142C115.314 13.9999 115.714 14.2856 116.114 14.4571C116.229 14.2856 116.286 14.0571 116.286 13.8285C116.286 12.4571 116.286 11.0856 116.286 9.65706C116.286 9.25706 116.057 8.9142 115.771 8.68563C115.486 8.45706 115.143 8.22849 114.857 7.99992C114.743 8.17134 114.629 8.39992 114.629 8.62849ZM112.229 9.14277C113.371 8.22849 114.457 7.25706 115.6 6.34277C116.229 6.74277 116.857 7.14277 117.486 7.54277C118.114 7.94277 118.571 8.68563 118.629 9.48563C118.629 10.5142 118.629 11.5999 118.629 12.6285C118.629 13.1428 118.457 13.7142 118 13.9999C117.143 14.7428 116.286 15.4285 115.429 16.1142C114.8 15.7142 114.114 15.2571 113.486 14.9142C112.857 14.5142 112.457 13.7713 112.457 12.9713C112.457 11.8856 112.457 10.7428 112.457 9.65706C112.4 9.42849 112.343 9.25706 112.229 9.14277Z" fill="#065A98"/>
<path d="M51.1429 8.5142C52 7.77134 52.8572 7.08563 53.7143 6.34277C53.7143 8.85706 53.7143 11.3142 53.7143 13.8285C53.7143 14.1142 53.8857 14.3999 54.1143 14.5713C53.5429 15.0285 52.9715 15.5428 52.4 15.9999C51.9429 15.6571 51.6572 15.1428 51.4857 14.6285C51.3715 14.1713 51.3715 13.7142 51.3715 13.2571C51.3715 11.9428 51.3715 10.5713 51.3715 9.25706C51.4286 8.97134 51.3143 8.68563 51.1429 8.5142Z" fill="#065A98"/>
<path d="M62 7.88563C62.6286 7.37134 63.2571 6.85706 63.8857 6.34277C64.4571 6.74277 64.6857 7.48563 64.6857 8.17134C65.4286 7.54277 66.1714 6.97134 66.8571 6.34277C67.1429 6.62849 67.4286 6.9142 67.7143 7.19992C68.2286 7.7142 68.5714 8.39992 68.5714 9.14277C68.5714 10.4571 68.5714 11.7713 68.5714 13.0856C68.5714 13.4856 68.5714 13.8856 68.4571 14.2285C68.2286 14.7999 67.7714 15.3142 67.2571 15.6571C66.9714 15.8856 66.6286 16.0571 66.2857 16.1713C66.2857 13.9428 66.2857 11.6571 66.2857 9.42849C66.2857 9.19992 66.2857 8.97134 66.1714 8.79992C66.0571 8.57134 65.8286 8.45706 65.5429 8.45706C65.2 8.45706 64.9143 8.57134 64.6286 8.74277C64.6286 10.4571 64.6286 12.1142 64.6286 13.8285C64.6286 14.1142 64.8 14.3428 65.0286 14.5142C64.4571 14.9713 63.8286 15.4856 63.2571 15.9428C62.8 15.5999 62.4571 15.0285 62.3429 14.4571C62.2286 13.9999 62.2857 13.5428 62.2857 13.0856C62.2857 11.5999 62.2857 10.1713 62.2857 8.68563C62.2857 8.39992 62.1714 8.1142 62 7.88563Z" fill="#065A98"/>
<path d="M70.1714 8.5142C71.0286 7.77134 71.8857 7.08563 72.7429 6.34277C72.7429 8.74277 72.7429 11.0856 72.7429 13.4856C72.7429 13.7142 72.7429 13.8856 72.8 14.1142C72.8572 14.2856 73.0286 14.4571 73.1429 14.5713C72.5714 15.0285 72 15.5428 71.4286 15.9999C70.8 15.4856 70.4 14.6285 70.4572 13.8285C70.4572 12.3428 70.4572 10.7999 70.4572 9.3142C70.4572 9.02849 70.3429 8.74277 70.1714 8.5142Z" fill="#065A98"/>
<path d="M95.6571 7.88563C96.2857 7.37134 96.9143 6.85706 97.5428 6.34277C98.1143 6.74277 98.3428 7.48563 98.3428 8.17134C99.0857 7.54277 99.8285 6.97134 100.514 6.34277C100.8 6.62849 101.029 6.85706 101.314 7.14277C101.829 7.65706 102.229 8.34277 102.229 9.08563C102.229 10.6285 102.229 12.1713 102.229 13.7142C102.229 14.3999 101.771 15.0285 101.257 15.4856C100.857 15.7713 100.457 16.0571 99.9428 16.2285C99.9428 13.9428 99.9428 11.7142 99.9428 9.42849C99.9428 9.25706 99.9428 9.02849 99.8857 8.85706C99.7714 8.62849 99.5428 8.5142 99.3143 8.5142C98.9714 8.45706 98.6285 8.62849 98.3428 8.79992C98.3428 10.4571 98.3428 12.1713 98.3428 13.8856C98.3428 14.1713 98.5143 14.3999 98.7428 14.5713C98.1714 15.0285 97.5428 15.5428 96.9714 15.9999C96.5142 15.6571 96.1714 15.0856 96.0571 14.5142C95.9428 14.0571 96 13.5999 96 13.0856C96 11.5999 96 10.1142 96 8.62849C95.9428 8.39992 95.8285 8.1142 95.6571 7.88563Z" fill="#065A98"/>
<path d="M121.886 6.34277C122.057 6.45706 122.229 6.62849 122.343 6.79992C122.629 7.19992 122.686 7.7142 122.686 8.17134C123.429 7.54277 124.171 6.97134 124.857 6.34277C125.143 6.62849 125.371 6.85706 125.657 7.14277C126.171 7.65706 126.571 8.39992 126.571 9.14277C126.571 10.6285 126.571 12.1713 126.571 13.6571C126.571 14.2856 126.229 14.8571 125.771 15.2571C125.371 15.6571 124.857 15.9428 124.286 16.1713C124.286 13.8856 124.286 11.6571 124.286 9.37134C124.286 9.19992 124.286 8.97134 124.229 8.79992C124.114 8.57134 123.943 8.45706 123.714 8.45706C123.314 8.39992 122.971 8.57134 122.686 8.74277C122.686 10.4571 122.686 12.1142 122.686 13.8285C122.686 14.1142 122.857 14.3428 123.086 14.5142C122.514 14.9713 121.886 15.4856 121.314 15.9428C120.686 15.4856 120.343 14.6285 120.343 13.8856C120.343 12.2856 120.343 10.6856 120.343 9.08563C120.343 8.79992 120.4 8.57134 120.286 8.28563C120.229 8.1142 120.171 7.99992 120.057 7.88563C120.629 7.37134 121.257 6.85706 121.886 6.34277Z" fill="#065A98"/>
<path d="M141.371 8.5142C142.229 7.77134 143.086 7.08563 143.943 6.34277C143.943 8.79992 143.943 11.2571 143.943 13.7142C143.943 14.0571 144.114 14.3428 144.4 14.5142C143.829 14.9713 143.257 15.4856 142.686 15.9428C142.057 15.4285 141.714 14.6285 141.714 13.8285C141.714 12.3999 141.714 10.9142 141.714 9.48563C141.714 9.19992 141.657 8.79992 141.371 8.5142Z" fill="#065A98"/>
<path d="M130.514 8.97127C130.514 10.1141 130.514 11.257 130.514 12.3998C130.743 12.2856 130.914 12.1141 131.086 11.9427C131.429 11.5998 131.657 11.0856 131.6 10.5713C131.543 9.9427 131.086 9.37127 130.514 8.97127ZM128.114 8.62841C129.029 7.88556 130 7.1427 130.914 6.39984C131.486 6.91413 132.057 7.42841 132.571 7.9427C132.914 8.3427 133.314 8.7427 133.429 9.31413C133.543 9.71413 133.429 10.1713 133.257 10.5713C133.086 10.9713 132.743 11.257 132.4 11.5427C131.829 12.057 131.2 12.5713 130.571 12.9713C130.629 13.257 130.743 13.5427 130.971 13.7713C131.2 13.9998 131.6 14.057 131.943 14.057C132.457 13.9998 133.029 13.8856 133.486 13.7141C132.514 14.5141 131.543 15.3141 130.571 16.057C130.057 15.7141 129.6 15.3713 129.2 14.9713C129.029 14.7998 128.857 14.6284 128.743 14.3998C128.457 13.9427 128.286 13.3713 128.286 12.857C128.286 11.5998 128.286 10.3427 128.286 9.08556C128.286 8.91413 128.229 8.79984 128.114 8.62841Z" fill="#065A98"/>
<path d="M56.1144 8.39986C56.8572 7.77129 57.6 7.14272 58.2857 6.57129C58.5143 6.91415 58.8572 7.19986 59.2572 7.31415C59.8286 7.48557 60.4572 7.37129 60.9143 7.14272C60.6286 7.42843 60.3429 7.71415 60.1143 7.94272C59.8857 8.17129 59.6572 8.457 59.3714 8.62843C59.0286 8.857 58.6286 8.91415 58.2857 8.857C57.8857 8.79986 57.6 8.51415 57.4857 8.17129C57.2572 8.34272 57.1429 8.62843 57.2 8.91415C57.2572 9.257 57.5429 9.54272 57.8286 9.71415C58.2857 9.99986 58.8 10.2856 59.2572 10.5141C59.8286 10.7427 60.3429 11.1427 60.6857 11.7141C60.9143 12.1141 61.0286 12.6284 60.9143 13.1427C60.7429 13.8284 60.3429 14.457 59.8857 14.9141C59.3143 15.5427 58.4572 15.9999 57.6 16.057C57.1429 16.1141 56.6286 15.9999 56.2286 15.7713C55.7144 15.4284 55.4286 14.9141 55.2001 14.3427C55.8858 13.7713 56.5715 13.1999 57.2572 12.6284C57.2572 13.1427 57.3714 13.657 57.6572 13.9999C57.9429 14.3427 58.4572 14.5141 58.9143 14.3427C59.2 14.2284 59.3714 13.8856 59.3143 13.5999C59.2572 13.3713 59.0857 13.1427 58.9143 13.0284C58.5714 12.7999 58.1714 12.5713 57.7714 12.3427C57.3714 12.1713 56.9715 11.9999 56.6286 11.7141C56.1144 11.3713 55.7715 10.857 55.6001 10.2856C55.4286 9.54272 55.6001 8.857 56.1144 8.39986Z" fill="#065A98"/>
<path d="M75.2571 8.28557C75.9428 7.71415 76.6286 7.14272 77.3143 6.57129C77.5429 6.91415 77.8857 7.19986 78.2857 7.31415C78.8571 7.48557 79.4857 7.37129 80 7.14272C79.6 7.54272 79.2571 7.88557 78.8571 8.28557C78.5714 8.57129 78.1714 8.79986 77.7714 8.857C77.4857 8.857 77.1428 8.79986 76.8571 8.62843C76.6857 8.51415 76.5714 8.34272 76.5143 8.11415C76.3428 8.28557 76.1714 8.457 76.2286 8.68557C76.2286 9.02843 76.4 9.31415 76.6286 9.48558C77.1429 9.88558 77.7143 10.1713 78.2857 10.3999C78.8571 10.6856 79.4286 11.0856 79.7143 11.657C79.9428 12.057 80 12.5141 79.9428 12.9141C79.8286 13.5427 79.4857 14.057 79.0857 14.5141C78.5714 15.1427 77.8286 15.5999 77.0286 15.8284C76.5143 15.9427 75.9429 15.9427 75.4857 15.7141C74.9143 15.4284 74.4571 14.7999 74.2857 14.1713C74.9714 13.5999 75.6571 13.0284 76.3429 12.457C76.3429 12.9141 76.4 13.3713 76.6857 13.7141C76.9143 14.057 77.2571 14.2284 77.6571 14.2856C77.8286 14.2856 78.0571 14.2284 78.1714 14.1141C78.4 13.9427 78.4571 13.657 78.4 13.3713C78.3428 13.1427 78.1714 12.9713 78 12.7999C77.6571 12.5713 77.2571 12.3427 76.8571 12.1713C76.5143 11.9999 76.1143 11.8284 75.7714 11.5999C75.2571 11.257 74.8571 10.7427 74.6857 10.1141C74.4571 9.48558 74.6857 8.68557 75.2571 8.28557Z" fill="#065A98"/>
<path d="M135.543 8.28565C136.229 7.71422 136.914 7.08565 137.657 6.51422C137.829 6.85708 138.171 7.14279 138.514 7.25708C139.086 7.42851 139.771 7.37136 140.286 7.08565C139.886 7.48565 139.486 7.88565 139.086 8.28565C138.686 8.62851 138.171 8.91422 137.657 8.79994C137.257 8.74279 136.914 8.45708 136.8 8.05708C136.629 8.17136 136.514 8.34279 136.514 8.57136C136.457 8.91422 136.629 9.25708 136.914 9.42851C137.371 9.77136 137.886 10.0571 138.457 10.2857C138.914 10.4571 139.371 10.7428 139.714 11.0856C140.114 11.5428 140.4 12.1714 140.286 12.7999C140.171 13.3714 139.886 13.8856 139.543 14.3428C139.143 14.8571 138.571 15.3142 137.943 15.5999C137.371 15.8285 136.8 15.9999 136.171 15.8285C135.371 15.6571 134.8 14.9142 134.571 14.1714C135.257 13.5999 135.943 13.0285 136.629 12.4571C136.629 12.9142 136.743 13.3714 136.971 13.7714C137.257 14.1714 137.829 14.3999 138.286 14.2285C138.571 14.1142 138.743 13.7142 138.629 13.4285C138.571 13.1999 138.4 12.9714 138.171 12.8571C137.714 12.5714 137.2 12.2856 136.743 12.0571C136.171 11.7714 135.6 11.4285 135.257 10.8571C134.914 10.3428 134.743 9.71422 134.914 9.14279C135.029 8.85708 135.2 8.51422 135.543 8.28565Z" fill="#065A98"/>
<path d="M40.7289 27.7856C40.7289 29.1056 41.0118 30.0742 41.5775 30.6914C42.1603 31.2914 42.9061 31.5914 43.8146 31.5914C44.3118 31.5914 44.7746 31.5228 45.2032 31.3856C45.6489 31.2485 46.0089 31.0856 46.2832 30.8971V23.9285C46.0603 23.8771 45.7861 23.8342 45.4603 23.7999C45.1346 23.7485 44.7232 23.7228 44.2261 23.7228C43.0946 23.7228 42.2289 24.0999 41.6289 24.8542C41.0289 25.5914 40.7289 26.5685 40.7289 27.7856ZM49.3946 33.4942C49.3946 35.6371 48.8461 37.2056 47.7489 38.1999C46.6689 39.1942 45.0061 39.6914 42.7603 39.6914C41.9375 39.6914 41.1318 39.6228 40.3432 39.4856C39.5718 39.3485 38.8689 39.1685 38.2346 38.9456L38.8003 36.2971C39.3318 36.5199 39.9318 36.6999 40.6003 36.8371C41.2861 36.9742 42.0232 37.0428 42.8118 37.0428C44.0632 37.0428 44.9546 36.7856 45.4861 36.2714C46.0175 35.7571 46.2832 34.9942 46.2832 33.9828V33.4685C45.9746 33.6228 45.5632 33.7771 45.0489 33.9314C44.5518 34.0856 43.9775 34.1628 43.3261 34.1628C42.4689 34.1628 41.6803 34.0256 40.9603 33.7514C40.2575 33.4771 39.6489 33.0742 39.1346 32.5428C38.6375 32.0114 38.2432 31.3514 37.9518 30.5628C37.6775 29.7571 37.5403 28.8314 37.5403 27.7856C37.5403 26.8085 37.6861 25.9085 37.9775 25.0856C38.2861 24.2628 38.7232 23.5599 39.2889 22.9771C39.8718 22.3942 40.5746 21.9399 41.3975 21.6142C42.2203 21.2885 43.1546 21.1256 44.2003 21.1256C45.2118 21.1256 46.1718 21.2028 47.0803 21.3571C47.9889 21.5114 48.7603 21.6742 49.3946 21.8456V33.4942ZM59.7303 24.2114C59.4731 24.1256 59.1131 24.0399 58.6503 23.9542C58.2046 23.8514 57.6817 23.7999 57.0816 23.7999C56.7387 23.7999 56.3702 23.8342 55.9759 23.9028C55.5987 23.9714 55.333 24.0314 55.1787 24.0828V34.8571H52.0673V22.0514C52.6673 21.8285 53.413 21.6228 54.3045 21.4342C55.213 21.2285 56.2159 21.1256 57.3131 21.1256C57.5189 21.1256 57.7589 21.1428 58.0331 21.1771C58.3074 21.1942 58.5817 21.2285 58.856 21.2799C59.1303 21.3142 59.396 21.3656 59.6531 21.4342C59.9103 21.4856 60.116 21.5371 60.2703 21.5885L59.7303 24.2114ZM73.3154 28.1199C73.3154 29.1828 73.1611 30.1514 72.8526 31.0256C72.544 31.8999 72.1069 32.6456 71.5411 33.2628C70.9754 33.8799 70.2897 34.3599 69.484 34.7028C68.6954 35.0456 67.8211 35.2171 66.8611 35.2171C65.9011 35.2171 65.0269 35.0456 64.2383 34.7028C63.4497 34.3599 62.7726 33.8799 62.2069 33.2628C61.6411 32.6456 61.1954 31.8999 60.8697 31.0256C60.5611 30.1514 60.4069 29.1828 60.4069 28.1199C60.4069 27.0571 60.5611 26.0971 60.8697 25.2399C61.1954 24.3656 61.6411 23.6199 62.2069 23.0028C62.7897 22.3856 63.4754 21.9142 64.264 21.5885C65.0526 21.2456 65.9183 21.0742 66.8611 21.0742C67.804 21.0742 68.6697 21.2456 69.4583 21.5885C70.264 21.9142 70.9497 22.3856 71.5154 23.0028C72.0811 23.6199 72.5183 24.3656 72.8269 25.2399C73.1526 26.0971 73.3154 27.0571 73.3154 28.1199ZM70.1269 28.1199C70.1269 26.7828 69.8354 25.7285 69.2526 24.9571C68.6869 24.1685 67.8897 23.7742 66.8611 23.7742C65.8326 23.7742 65.0269 24.1685 64.444 24.9571C63.8783 25.7285 63.5954 26.7828 63.5954 28.1199C63.5954 29.4742 63.8783 30.5456 64.444 31.3342C65.0269 32.1228 65.8326 32.5171 66.8611 32.5171C67.8897 32.5171 68.6869 32.1228 69.2526 31.3342C69.8354 30.5456 70.1269 29.4742 70.1269 28.1199ZM86.2669 34.4456C85.6669 34.5999 84.8869 34.7542 83.9269 34.9085C82.9669 35.0799 81.9126 35.1656 80.764 35.1656C79.684 35.1656 78.7754 35.0114 78.0383 34.7028C77.3183 34.3942 76.7354 33.9656 76.2897 33.4171C75.8611 32.8685 75.5526 32.2171 75.364 31.4628C75.1754 30.6914 75.0811 29.8514 75.0811 28.9428V21.4085H78.1926V28.4542C78.1926 29.8942 78.3983 30.9228 78.8097 31.5399C79.2383 32.1571 79.9754 32.4656 81.0211 32.4656C81.3983 32.4656 81.7926 32.4485 82.204 32.4142C82.6326 32.3799 82.9497 32.3371 83.1554 32.2856V21.4085H86.2669V34.4456ZM97.864 28.1971C97.864 26.8085 97.5469 25.7285 96.9126 24.9571C96.2954 24.1856 95.2926 23.7999 93.904 23.7999C93.6126 23.7999 93.304 23.8171 92.9783 23.8514C92.6697 23.8685 92.3611 23.9199 92.0526 24.0056V31.6942C92.3269 31.8828 92.6869 32.0628 93.1326 32.2342C93.5954 32.3885 94.084 32.4656 94.5983 32.4656C95.7297 32.4656 96.5526 32.0799 97.0669 31.3085C97.5983 30.5371 97.864 29.4999 97.864 28.1971ZM101.053 28.1456C101.053 29.1742 100.915 30.1171 100.641 30.9742C100.384 31.8314 100.007 32.5685 99.5097 33.1856C99.0126 33.8028 98.3869 34.2828 97.6326 34.6256C96.8954 34.9685 96.0554 35.1399 95.1126 35.1399C94.4783 35.1399 93.8954 35.0628 93.364 34.9085C92.8326 34.7542 92.3954 34.5828 92.0526 34.3942V39.6142H88.9411V21.8456C89.5754 21.6742 90.3554 21.5114 91.2811 21.3571C92.2069 21.2028 93.184 21.1256 94.2126 21.1256C95.2754 21.1256 96.2269 21.2885 97.0669 21.6142C97.9069 21.9399 98.6183 22.4114 99.2011 23.0285C99.8011 23.6285 100.255 24.3656 100.564 25.2399C100.89 26.0971 101.053 27.0656 101.053 28.1456Z" fill="#065A98"/>
<path d="M6.22874 17.8856C6.22874 17.8856 6.05731 17.8856 5.77159 17.8856C4.80016 17.8856 1.60016 18.2285 1.60016 22.857C1.60016 22.9142 1.71444 24.9713 2.40016 26.7999L2.68587 27.4856L2.80016 26.7428C2.80016 26.6285 3.2573 24.2856 5.48587 24.2856C5.6573 24.2856 5.88588 24.2856 6.11445 24.3428L6.34302 24.3999L6.45731 17.9428L6.22874 17.8856Z" fill="#065A98"/>
<path d="M21.6571 9.71417L20.3428 10.9713L19.0856 9.71417L20.3428 8.45703L21.6571 9.71417Z" fill="#065A98"/>
<path d="M20 36.4571V10.2285H20.6286V36.4571H20Z" fill="#065A98"/>
<path d="M10.9714 12.5143C10.9714 12.5143 10.9714 12.4 10.9714 12.1715V12.1143C10.9714 11.4857 11.1428 10.1715 11.6 9.14288C9.02852 10.8 7.02852 12.9143 6.97138 12.9143C5.48567 14.4572 5.54281 16.1143 5.54281 16.1715V31.7143C5.54281 34.0572 4.68567 34.9715 4.62852 34.9715L3.94281 35.6572L4.8571 35.3143C11.2 32.9715 10.9714 27.7143 10.9714 27.6572V12.5143Z" fill="#065A98"/>
<path d="M22.4573 18.0571H22.2859C29.0287 13.6 28.9716 7.54284 28.9716 7.4857C28.9716 0.628554 23.6573 0.571411 23.6001 0.571411C21.2001 0.571411 19.7716 1.99998 19.7144 2.05713L14.0573 7.02855C12.2287 9.14284 12.4573 11.4857 12.4573 11.5428V27.4286C12.4573 30.6857 11.2001 31.9428 11.2001 31.9428L10.5144 32.5714L11.3716 32.2857C18.1144 30 17.943 24.3428 17.943 24.2857V7.65712C17.943 6.05712 18.4001 4.85713 19.2001 4.22855C19.8287 3.77141 20.4573 3.71427 20.5144 3.71427C21.143 3.71427 21.7144 3.94284 22.1716 4.39998C23.7716 5.99998 23.7716 9.82855 23.7716 9.82855C23.7716 16.9714 20.343 18.1143 20.343 18.1143L20.1716 18.1714V19.0286H20.343C26.2287 19.4857 26.2287 26 26.2287 26.2857C26.2287 33.3714 22.1144 35.4286 21.4859 35.7143C18.9716 34.0571 16.4573 33.2 14.0001 33.2C8.11442 33.2 4.11442 38.1143 2.68585 40.1714C4.40014 39.3714 6.00014 38.9714 7.14299 38.8C7.54299 38.7428 7.94299 38.6857 8.40014 38.6286C8.74299 38.6286 8.91442 38.5714 8.91442 38.5714C10.2859 38.5714 11.7144 38.9143 13.2001 39.5428H13.2573C14.0573 39.9428 15.0859 40.1143 16.2859 40.1143C19.7144 40.1143 23.4859 38.4571 23.6001 38.4C29.8287 35.8857 31.6573 30.4571 31.6573 30.4C31.7144 30.2857 31.7144 30.1714 31.7144 30.1714C32.2858 28.1714 32.2858 26.2286 32.2858 26.1143C32.2287 18.6286 24.743 18.0571 22.4573 18.0571Z" fill="#065A98"/>
<path d="M14 2.74286C13.8286 2.8 13.6 2.8 13.4286 2.8C13.3143 2.8 13.2571 2.8 13.2571 2.8H13.2C12.9714 2.8 12.1714 2.74286 10.8 1.77143C10.6857 1.71429 8.51429 0 6.74286 0C6.74286 0 6.68571 0 6.62857 0C6.05714 0 4 0.171429 2.22857 2.11429C2.17143 2.17143 0.857143 3.82857 0.0571429 5.88571L0 6C1.82857 4.68571 3.25714 4.8 3.25714 4.8C3.25714 4.8 4.45714 4.8 5.71429 5.82857C5.77143 5.88571 7.6 7.37143 9.31429 7.37143C9.31429 7.37143 9.37143 7.37143 9.54286 7.37143C10.4571 7.37143 13.7143 6.97143 16.7429 1.65714C15.7714 2.34286 14.6857 2.62857 14 2.74286Z" fill="#065A98"/>
</g>
<defs>
<clipPath id="clip0_1_476">
<rect width="152.571" height="40" fill="white"/>
</clipPath>
</defs>
</svg>
