<svg width="30" height="30" viewBox="0 0 30 30" fill="none" xmlns="http://www.w3.org/2000/svg">
<rect width="30" height="30" rx="10" fill="#D1E200"/>
<path d="M17.8125 15C17.8125 15.7459 17.5162 16.4613 16.9887 16.9887C16.4613 17.5162 15.7459 17.8125 15 17.8125C14.2541 17.8125 13.5387 17.5162 13.0113 16.9887C12.4838 16.4613 12.1875 15.7459 12.1875 15C12.1875 14.2541 12.4838 13.5387 13.0113 13.0113C13.5387 12.4838 14.2541 12.1875 15 12.1875C15.7459 12.1875 16.4613 12.4838 16.9887 13.0113C17.5162 13.5387 17.8125 14.2541 17.8125 15Z" fill="white"/>
<path d="M6 15C6 15 9.375 8.8125 15 8.8125C20.625 8.8125 24 15 24 15C24 15 20.625 21.1875 15 21.1875C9.375 21.1875 6 15 6 15ZM15 18.9375C16.0443 18.9375 17.0458 18.5227 17.7842 17.7842C18.5227 17.0458 18.9375 16.0443 18.9375 15C18.9375 13.9557 18.5227 12.9542 17.7842 12.2158C17.0458 11.4773 16.0443 11.0625 15 11.0625C13.9557 11.0625 12.9542 11.4773 12.2158 12.2158C11.4773 12.9542 11.0625 13.9557 11.0625 15C11.0625 16.0443 11.4773 17.0458 12.2158 17.7842C12.9542 18.5227 13.9557 18.9375 15 18.9375Z" fill="white"/>
</svg>
